<svg width="395" height="425" viewBox="0 0 395 425" fill="none" xmlns="http://www.w3.org/2000/svg">
<g filter="url(#filter0_b_1_174)">
<path d="M0 197.5C0 88.4238 88.4238 0 197.5 0C306.576 0 395 88.4238 395 197.5V424.285H0V197.5Z" fill="#F1EFE9" fill-opacity="0.7"/>
<path fill-rule="evenodd" clip-rule="evenodd" d="M206.661 162.997C206.59 164.493 207.125 166.165 208.157 167.674C208.857 168.699 209.305 167.964 209.312 167.459C209.336 166.336 209.975 166.057 210.904 165.847C213.278 165.309 214.535 163.485 214.302 161.139C214.135 159.438 214.438 159.967 215.877 160.14C218.023 160.403 220.025 160.113 221.753 158.588C222.295 158.104 222.258 157.77 221.652 157.42C219.242 156.019 216.745 154.885 213.97 154.59C211.847 154.365 210.061 155.07 208.618 156.743C207.183 158.413 206.676 160.42 206.66 162.996L206.661 162.997ZM199.967 165.367C198.979 165.354 197.988 165.363 196.998 165.363V165.356C196.041 165.356 195.079 165.345 194.124 165.363C193.773 165.371 193.261 165.257 193.213 165.783C193.148 166.432 193.747 166.348 194.091 166.358C196.068 166.412 198.047 166.422 200.026 166.417C200.362 166.417 200.867 166.49 200.828 165.884C200.79 165.354 200.338 165.371 199.967 165.367ZM193.846 164.331L200.189 164.327C200.721 164.337 201.125 164.142 201.501 163.734C204.509 160.485 203.706 154.439 199.923 151.956C197.411 150.306 194.537 150.824 192.68 153.262C190.536 156.07 190.437 160.648 192.43 163.573C192.795 164.101 193.228 164.346 193.846 164.331ZM195.293 214.902C195.319 216.476 196.051 217.082 197.534 216.752C198.272 216.588 198.655 216.218 198.632 215.351C198.591 213.491 198.621 211.629 198.621 209.766H198.805C198.805 205.668 199.116 205.508 196.451 205.663C195.324 205.729 195.109 205.939 195.13 207.163C195.17 209.744 195.247 212.322 195.293 214.902ZM195.577 231.828C195.615 233.493 195.816 233.622 197.413 233.542C198.162 233.505 198.465 233.18 198.441 232.389C198.405 231.249 198.431 230.106 198.431 228.96H198.489C198.489 227.917 198.46 226.872 198.493 225.828C198.53 224.603 198.238 224.234 197.086 224.182C196.051 224.134 195.55 224.618 195.544 225.755C195.529 227.78 195.526 229.806 195.577 231.828ZM195.869 243.087C195.852 244.563 198.069 244.72 198.155 243.27C198.212 242.26 198.204 241.245 198.207 240.231C198.207 239.869 198.027 239.636 197.672 239.531C195.803 238.972 195.856 240.304 195.856 241.612H195.871L195.869 243.087ZM196.999 253.066C198.139 253.022 198.557 249.939 197.028 249.903C196.301 249.885 196.044 250.644 196.051 251.514C196.044 252.262 196.506 253.087 196.999 253.066ZM196.098 261.049C196.136 262.275 197.87 262.379 197.87 260.961C197.867 260.698 197.87 260.434 197.87 260.179H197.88C197.88 259.311 198.045 258.166 197.046 258.083C195.842 257.984 196.065 259.963 196.098 261.049ZM196.427 267.187C196.423 268.917 196.421 270.647 196.429 272.378C196.435 273.614 197.633 273.552 197.661 272.405C197.688 271.522 197.67 270.64 197.67 269.76H197.692C197.692 268.91 197.694 268.062 197.692 267.212C197.69 266.724 197.602 266.224 197.026 266.244C196.517 266.262 196.429 266.737 196.427 267.187ZM195.607 265.934C195.807 265.642 196.064 265.34 195.578 265.062C194.426 264.408 193.69 266.838 194.689 268.648C194.818 268.883 194.935 269.281 195.28 269.115C196.024 268.751 194.384 267.739 195.607 265.934ZM198.423 264.224C197.6 263.505 196.616 263.079 195.686 262.554C194.296 261.769 193.904 260.085 194.777 258.703C195.195 258.047 195.805 257.704 195.525 257.257C195.002 256.417 193.933 256.35 193.345 257.128C192.09 258.798 192.488 261.408 194.285 262.882C195.091 263.542 195.998 264.069 196.856 264.652C198.173 265.54 199.423 266.459 198.646 268.266C198.588 268.667 198.534 268.938 198.803 269.026C199.517 269.257 200.698 266.212 198.423 264.224ZM195.471 250.094C196.38 248.782 195.176 248.681 194.41 248.089C193.579 247.446 193.028 248.527 192.731 249.275C191.765 251.722 192.525 254 194.885 255.57C195.908 256.249 197.041 256.746 198.041 257.45C199.89 258.751 200.087 260.544 198.651 262.304C198.078 263 199.024 263.188 199.065 263.186C199.36 263.126 199.638 262.919 199.899 262.689C202.035 260.802 201.668 257.194 199.155 255.611C198.408 255.143 197.586 254.813 196.818 254.38C195.039 253.371 194.432 251.59 195.471 250.094ZM200.778 248.28C198.448 245.258 196.409 245.7 194.362 243.887C193.132 242.797 192.914 242.044 193.385 240.436C193.874 238.759 193.244 239.26 191.963 238.68C191.514 238.478 191.28 238.653 191.104 239.104C190.118 241.634 191.195 244.932 193.468 246.291C194.687 247.017 195.928 247.701 197.125 248.465C199.197 249.79 199.476 250.926 198.355 253.174C198.214 253.46 197.968 253.809 198.337 254.036C198.813 254.329 199.353 254.511 199.774 254.701C200.891 254.899 202.631 250.682 200.779 248.28H200.778ZM197.43 234.576C196.965 234.551 196.501 234.573 196.033 234.543C190.377 234.17 189.569 227.862 192.728 225.093C193.541 224.38 194.585 224.12 194.504 223.655C194.444 223.304 194.077 223.308 193.816 223.25C192.264 222.903 190.76 222.39 189.28 221.775C188.813 221.579 188.412 221.488 188.088 221.898C187.473 222.675 186.747 223.382 186.437 224.369C185.401 227.694 185.223 230.89 187.622 233.769C189.63 236.175 191.86 238.071 195.056 238.317C197.756 238.524 200.982 237.858 200.714 241.764C200.538 244.315 198.513 244.205 198.693 245.042C198.815 245.623 200.574 246.414 201.038 246.078C201.971 245.403 202.714 244.577 203.157 243.424C204.894 238.908 201.11 234.773 197.43 234.576ZM189.696 204.873C187.647 204.71 185.582 204.55 183.642 203.83C182.568 203.432 181.965 203.79 181.347 204.625C178.846 208.004 179.186 212.947 182.061 216.162C184.534 218.919 187.658 220.343 191.019 221.337C193.325 222.018 195.649 222.621 197.959 223.281C199.294 223.663 200.503 224.311 201.586 225.236C204.253 227.512 203.949 231.86 201.006 233.489C199.365 234.397 201.876 235.089 203.012 236.611C203.098 236.728 203.254 236.79 203.4 236.894C203.661 236.721 203.916 236.59 204.13 236.41C205.228 235.484 206.118 234.358 207.029 233.235C209.626 230.037 208.976 222.785 204.304 220.414C199.881 218.17 195.801 217.932 191.838 216.417C189.834 215.651 188.231 214.417 187.342 212.277C186.992 211.438 186.964 210.667 187.249 209.817C188.612 205.75 190.995 205.952 190.939 205.279C190.906 204.879 190.145 204.909 189.696 204.873ZM186.626 185.772C185.407 186.509 184.15 186.945 182.759 187.079C181.771 187.175 180.794 187.399 179.82 187.599C178.08 187.954 176.831 188.994 176.056 190.667C175.145 192.633 175.425 194.557 176.293 196.432C177.911 199.945 180.607 202.081 184.186 202.868C188.756 203.871 193.409 204.268 198.058 204.644C202.253 204.982 206.383 205.213 207.053 210.613C207.506 214.266 203.546 216.179 200.965 216.902C200.683 216.982 200.246 216.988 200.222 217.375C200.187 217.875 200.683 217.847 200.973 217.922C206.004 219.228 205.126 220.732 206.691 219.999C210.762 218.094 214.425 214.695 214.463 209.277C214.421 207.121 213.536 205.219 211.849 203.71C209.448 201.561 206.595 200.496 203.55 199.968C199.855 199.329 196.135 199.135 192.394 199.198C190.621 199.228 188.855 199.113 187.104 198.78C185.14 198.406 183.454 197.482 182.129 195.904C180.241 193.658 180.458 191.024 182.743 190.846C187.084 190.506 188.969 192.513 191.811 190.337C192.605 189.729 192.777 188.78 192.4 187.876C191.655 186.12 188.212 184.81 186.626 185.772ZM188.804 187.702C187.365 187.702 187.365 186.762 188.804 186.762C190.242 186.762 190.242 187.702 188.804 187.702ZM187.709 182.862C185.834 183.512 185.18 181.298 183.926 182.793C183.207 183.646 182.48 184.496 181.766 185.349L181.503 185.933C181.734 186.484 184.334 185.912 185.167 185.274C186.664 184.128 187.486 185.082 188.232 183.696C188.688 182.847 188.06 182.74 187.709 182.862ZM187.187 181.554C189.173 181.575 192.013 178.036 190.799 177.431C189.893 176.978 189.851 179.192 186.951 181.359C187.098 181.482 187.144 181.554 187.187 181.554ZM192.024 178.944C190.637 181.845 189.264 181.876 189.454 182.419L190.117 182.521C192.235 181.251 192.8 179.455 192.959 179.274C193.213 178.707 192.369 178.223 192.024 178.944ZM183.719 180.394C183.852 180.846 184.402 180.854 184.567 180.792C186.609 180.038 188.161 178.659 189.228 176.686C189.547 176.101 188.615 175.24 188.082 175.908L184.069 179.668C183.83 179.82 183.615 180.049 183.719 180.394ZM178.576 181.356C176.001 183.738 172.966 185.324 169.953 186.954C169.257 187.331 169.252 187.755 169.914 188.255C170.742 188.882 171.71 188.928 172.596 188.93C173.604 189.037 174.478 188.842 175.308 188.43C178.291 186.942 180.59 184.559 182.789 182.047C183.194 181.585 182.832 180.471 182.035 180.763C180.343 181.385 179.141 180.835 178.576 181.356ZM171.159 178.772C168.399 180.632 165.481 182.147 162.303 183.04C161.511 183.26 161.43 183.714 161.655 184.424C162.305 186.468 164.675 186.907 166.733 186.417C169.997 185.64 172.851 183.947 175.574 181.971C176.079 181.603 176.711 181.312 176.954 180.698C177.152 180.208 176.473 179.876 176.476 179.384C176.484 177.828 175.227 178.487 174.594 178.134C173.281 177.394 172.231 178.052 171.16 178.773L171.159 178.772ZM167.693 174.76C163.765 176.613 159.648 177.828 155.459 178.813C154.479 179.043 154.386 179.393 155.098 180.156C156.396 181.55 158.845 182.082 160.465 181.757C164.685 180.922 168.471 179.027 171.978 176.467C172.119 176.364 172.358 176.276 172.293 176.041C172.124 175.426 170.961 176.3 168.659 174.828C168.341 174.625 168.04 174.597 167.693 174.76ZM162.146 171.556C159.275 172.327 156.33 172.552 153.393 172.855C151.282 173.071 149.171 172.967 147.061 173.136C146.347 173.194 146.145 173.448 146.522 174.189C147.739 176.591 149.648 177.634 152.243 177.517C156.611 177.503 162.349 175.46 166.335 173.59C167.376 173.102 167.213 172.194 166.129 172.078C164.193 171.869 164.051 171.046 162.146 171.556ZM161.441 170.055C160.611 169.272 160.311 167.96 158.994 167.632C155.556 166.776 156.154 164.507 154.621 164.65C149.981 165.085 145.342 165.53 140.688 165.789C139.759 165.841 138.826 165.902 137.902 166.011C136.927 166.122 136.822 166.347 137.211 167.269C137.503 167.963 137.923 168.566 138.405 169.131C140.405 171.454 143.044 172.019 145.461 172.143C152.148 171.88 154.707 171.832 160.932 170.578C161.171 170.53 161.792 170.389 161.441 170.057L161.441 170.055ZM161.186 166.33C165.829 166.135 169.874 164.05 173.872 161.837C175.128 161.143 172.874 161.077 170.896 159.299C170.434 158.885 170.005 158.847 169.446 159.068C165.427 160.653 161.375 162.127 157.275 163.457C156.928 163.569 156.434 163.59 156.351 164.012C156.23 164.622 157.04 165.088 157.042 165.088C158.281 165.999 159.665 166.422 161.186 166.33ZM168.906 170.103C171.936 169.046 174.688 167.425 177.359 165.607C178.403 164.897 179.151 164.327 178.707 162.776C178.09 160.614 177.312 161.66 175.704 162.568C171.366 165.014 166.935 167.206 161.986 167.914C161.508 167.98 161.117 168.098 161.733 168.76C163.715 170.903 166.29 171.017 168.906 170.103ZM183.033 167.965C180.012 171.03 177.542 173.128 173.796 175.2C173.531 175.347 173.16 175.45 173.159 175.839C173.157 176.286 173.51 176.504 173.845 176.687C174.941 177.29 176.965 176.858 178.026 176.444C180.369 175.53 181.92 173.632 183.557 171.775C184.611 170.577 184.638 169.495 183.969 168.168C183.688 167.603 183.492 167.499 183.033 167.965ZM181.668 167.068C181.173 166.585 180.625 166.146 180.053 165.768C179.673 165.517 179.352 165.89 179.05 166.093C174.981 168.823 173.087 170.113 168.573 171.761C167.849 172.024 167.851 172.463 168.261 173.018C169.687 174.964 172.366 174.437 174.143 173.407C176.828 171.851 179.153 169.791 181.394 167.617C181.547 167.47 181.838 167.233 181.668 167.068ZM182.814 165.671C183.934 165.939 184.891 166.063 184.743 167.671C184.693 168.224 185.163 168.532 185.584 167.935C186.611 166.487 187.588 164.999 187.587 162.732C187.339 160.971 186.838 158.931 185.632 157.22C181.899 151.932 176.68 155.732 172.18 157.616C171.777 157.786 171.726 158.092 172.086 158.343C173.382 159.249 174.661 160.185 176.321 160.207C177.259 160.221 178.189 160.149 179.106 159.963C179.82 159.817 179.888 160.093 179.782 160.738C179.374 163.214 180.491 165.114 182.814 165.671ZM186.151 176.003C187.348 174.571 187.339 174.563 186.258 173.138C185.679 172.377 185.459 171.558 184.584 172.614C182.7 174.889 180.76 177.106 177.908 178.087C177.09 178.367 177.255 179.454 177.929 179.619C178.358 179.842 178.825 179.874 179.3 179.87C182.171 179.742 184.324 178.19 186.151 176.003ZM193.782 177.009C193.802 176.449 193.538 176.221 193.095 176.001C190.276 174.607 187.275 172.07 185.481 169.216C185.303 169.758 185.538 170.019 185.679 170.288C187.411 173.524 189.949 175.844 193.066 177.512C193.613 177.807 193.771 177.599 193.782 177.009ZM199.282 182.052C199.479 177.604 199.256 173.146 199.479 168.693C199.521 167.891 199.229 167.475 198.403 167.509C197.378 167.553 196.348 167.538 195.323 167.509C194.673 167.491 194.415 167.803 194.439 168.452C194.478 169.629 194.533 170.807 194.548 171.984C194.586 175.621 194.511 179.256 194.733 182.888V183.478C194.724 188.03 194.789 192.581 194.902 197.131C194.93 198.069 195.246 198.347 196.085 198.241C197.757 198.027 198.952 198.501 198.999 197.371C199.039 196.489 199.103 195.607 199.129 194.724C199.262 190.502 199.093 186.277 199.282 182.052ZM200.826 177.528C204.022 175.915 206.804 173.823 208.341 170.297C208.503 169.934 208.759 169.578 208.616 169.105C208.258 169.218 208.212 169.542 208.075 169.782C206.45 172.605 204.317 174.788 201.25 175.809C200.495 176.065 199.783 176.394 200.185 177.449C200.312 177.789 200.602 177.641 200.826 177.528ZM204.601 182.015C203.539 181.128 202.761 180.008 202.11 178.768C201.732 178.057 200.475 178.709 201.11 179.506C201.777 180.342 203.354 182.336 204.426 182.522C204.752 182.579 204.826 182.204 204.601 182.015ZM206.827 181.061C205.781 179.959 204.635 178.953 203.957 177.52C203.667 176.913 202.848 177.469 203.116 178.105C203.473 178.948 203.943 179.712 204.605 180.317C205.27 180.923 205.955 181.535 207.015 181.467C206.931 181.278 206.904 181.142 206.827 181.061ZM205.067 176.76C205.976 178.459 207.768 180.356 209.563 180.737C210.288 180.891 210.625 180.104 209.929 179.718C208.342 178.844 207.205 177.488 206.212 175.965C205.999 175.64 205.784 175.408 205.384 175.694C205 175.969 204.81 176.285 205.067 176.76ZM211.588 186.146C211.887 186.117 212.288 186.269 212.442 185.933C212.613 185.563 212.196 185.388 212 185.16C211.363 184.405 210.564 183.795 210.056 182.919C209.638 182.201 209.112 182.138 208.475 182.524C207.032 183.401 205.99 182.323 205.81 183.152C205.597 184.127 206.934 184.445 207.427 184.564C209.875 185.154 209.105 186.395 211.588 186.146ZM214.836 187.813C213.327 187.379 211.789 187.161 210.229 187.231C208.374 187.32 209.298 185.929 206.611 185.604C204.723 185.377 203.237 186.257 201.843 187.429C200.902 188.22 200.873 190.789 203.374 191.239C208.052 192.081 208.473 189.775 210.946 190.375C213.14 190.911 213.878 192.615 212.78 194.708C212.092 196.024 211.003 196.863 209.811 197.603C208.568 198.375 207.183 198.734 205.589 199.064C206.783 200.017 208.861 200.098 210.54 201.43C211.857 202.475 212.82 201.831 213.967 201.032C216.327 199.371 218.29 197.439 218.711 194.24C219.129 191.072 217.723 188.645 214.836 187.813ZM205.099 186.762C206.538 186.762 206.538 187.702 205.099 187.702C203.661 187.702 203.661 186.762 205.099 186.762ZM217.538 182.942C216.234 181.911 214.955 180.771 213.131 181.017L212.312 180.856C211.871 180.764 211.408 180.485 211.104 181.134C210.833 181.71 211.042 182.121 211.409 182.534C212.843 184.128 214.32 185.682 216.09 186.852C218.035 188.137 221.443 190.036 223.732 188.545C224.116 188.294 224.446 187.966 224.461 187.473C224.485 186.911 223.975 186.852 223.627 186.693C221.454 185.705 219.431 184.444 217.538 182.942ZM214.922 179.862C217.068 179.733 216.958 178.283 215.943 177.949C213.284 177.071 211.348 175.193 209.66 172.943C208.331 171.172 208.502 172.361 207.242 173.775C206.873 174.191 206.928 174.571 207.225 175C208.022 176.145 208.994 177.108 210.067 177.953C211.466 179.054 213.035 179.709 214.922 179.862ZM231.819 183.047C228.937 182.551 224.84 180.06 222.381 178.459C221.527 177.904 220.793 177.781 219.779 177.966C218.548 178.193 217.687 178.453 217.36 179.916C217.213 180.564 217.139 180.917 217.692 181.286C221.359 183.725 224.951 186.874 229.443 186.514L231.605 185.78C232.494 185.228 233.309 183.304 231.819 183.047ZM223.016 175.743C222.68 175.814 222.177 175.583 222.082 176.133C221.99 176.646 222.462 176.84 222.784 177.066C224.36 178.182 226.061 179.062 227.791 179.872C229.98 180.899 232.239 181.707 234.709 181.966C236.256 181.847 237.791 181.513 238.939 180.169C239.704 179.272 239.605 178.952 238.502 178.737C234.46 177.942 230.564 176.641 226.787 174.942C225.36 174.299 225.332 175.244 223.017 175.742L223.016 175.743ZM220.501 175.216C216.99 173.679 214.219 171.068 211.504 168.379C210.39 167.279 210.314 167.289 209.848 168.812C209.615 169.582 209.229 170.315 209.87 171.102C211.231 172.766 212.645 174.365 214.357 175.635C215.592 176.552 216.979 176.945 218.634 176.933C221.09 176.951 221.528 175.669 220.501 175.216ZM225.288 171.782C221.652 170.684 218.508 168.564 215.414 166.377C214.509 165.736 213.884 165.714 213.028 166.399C212.332 166.956 212.325 167.315 212.919 167.918C215.071 170.116 217.461 171.983 220.065 173.541C221.602 174.459 224.49 174.928 225.707 173.073C226.118 172.448 226.07 172.019 225.288 171.782ZM225.692 170.269C228.029 171.214 230.248 170.286 232.108 169.001C232.38 168.815 232.791 168.581 232.701 168.196C232.604 167.789 232.066 167.814 231.57 167.73C226.638 166.891 221.663 165.186 217.566 161.924C216.975 161.452 216.101 161.079 215.643 161.72C215.206 162.333 215.164 163.323 215.112 164.16C215.076 164.743 215.699 164.97 216.109 165.231C219.172 167.189 222.348 168.911 225.692 170.269ZM240.882 172.941C237.736 172.746 234.662 172.104 231.6 171.383C229.985 171.003 230.345 171.661 227.98 171.986C227.45 172.062 226.989 172.174 226.9 172.835C226.796 173.601 227.422 173.639 227.85 173.8C230.898 174.948 238.531 177.497 241.725 177.573C244.239 177.586 246.339 176.718 247.724 174.372C248.329 173.346 248.176 173.072 247.031 173.047C244.978 173.003 242.93 173.067 240.882 172.941ZM239.809 164.582C237.793 164.407 238.227 166.413 236.108 167.175C234.496 167.753 234.102 168.323 233.19 169.556C232.986 169.827 232.499 169.971 232.61 170.364C232.727 170.79 233.222 170.734 233.569 170.797C238.718 171.724 244.28 172.151 249.516 171.98C252.716 171.872 255.204 170.518 256.693 167.414C257.242 166.265 257.108 166.046 255.856 165.946L239.809 164.582ZM220.511 162.009C223.062 163.384 225.684 164.58 228.399 165.55C229.82 166.057 231.274 166.384 232.853 166.464C234.414 166.263 236.096 166.178 237.314 164.76C237.894 164.082 237.836 163.767 237.029 163.505C232.807 162.138 228.618 160.673 224.504 158.984C223.332 158.504 223.351 159.671 220.527 160.967C220.283 161.079 219.91 161.101 219.912 161.468C219.912 161.816 220.27 161.881 220.511 162.009Z" fill="#CC8E1E"/>
</g>
<defs>
<filter id="filter0_b_1_174" x="-30" y="-30" width="455" height="484.285" filterUnits="userSpaceOnUse" color-interpolation-filters="sRGB">
<feFlood flood-opacity="0" result="BackgroundImageFix"/>
<feGaussianBlur in="BackgroundImageFix" stdDeviation="15"/>
<feComposite in2="SourceAlpha" operator="in" result="effect1_backgroundBlur_1_174"/>
<feBlend mode="normal" in="SourceGraphic" in2="effect1_backgroundBlur_1_174" result="shape"/>
</filter>
</defs>
</svg>
