<svg aria-hidden="true" style="position: absolute; width: 0; height: 0; overflow: hidden;" version="1.1" xmlns="http://www.w3.org/2000/svg" xmlns:xlink="http://www.w3.org/1999/xlink">
<defs>
<symbol id="login" viewBox="0 0 28 32">
<path d="M14.222 15.388c2.063 0 4.041-0.796 5.5-2.213s2.278-3.339 2.278-5.343c0-2.004-0.819-3.926-2.278-5.343s-3.437-2.213-5.5-2.213c-2.063 0-4.041 0.796-5.5 2.213s-2.278 3.339-2.278 5.343c0 2.004 0.819 3.926 2.278 5.343s3.437 2.213 5.5 2.213zM4.778 17.547c-1.031 0-2.021 0.398-2.75 1.107s-1.139 1.669-1.139 2.671v0.54c0 2.583 1.692 4.767 4.094 6.253 2.416 1.494 5.686 2.382 9.239 2.382s6.822-0.888 9.239-2.382c2.402-1.485 4.094-3.67 4.094-6.253v-0.54c0-1.002-0.41-1.963-1.139-2.671s-1.718-1.107-2.75-1.107h-18.889z"></path>
</symbol>
<symbol id="visa" viewBox="0 0 100 32">
<path fill="#8099f7" style="fill: var(--color2, #8099f7)" d="M71.309 3.033c-2.204-0.803-4.533-1.206-6.879-1.19-7.585 0-12.942 3.821-12.98 9.306-0.048 4.030 3.807 6.3 6.722 7.647 2.992 1.384 3.992 2.257 3.982 3.494-0.019 1.882-2.389 2.735-4.594 2.735-3.029 0-4.684-0.422-7.23-1.479l-0.943-0.441-1.076 6.315c1.844 0.768 5.167 1.427 8.6 1.484 8.064 0 13.335-3.797 13.397-9.633 0.066-3.219-2.020-5.651-6.41-7.661-2.669-1.303-4.324-2.176-4.324-3.499 0-1.171 1.418-2.422 4.38-2.422 1.972-0.048 3.932 0.322 5.75 1.085l0.711 0.318 1.076-6.101-0.185 0.043zM90.993 2.355h-5.926c-1.844 0-3.233 0.507-4.039 2.337l-11.397 25.818h8.064l1.612-4.234 9.842 0.010c0.233 0.991 0.944 4.224 0.944 4.224h7.111l-6.21-28.155zM40.542 2.118h7.685l-4.807 28.17h-7.675l4.798-28.179v0.009zM21.034 17.644l0.796 3.911 7.509-19.2h8.14l-12.093 28.117h-8.121l-6.637-23.808c-0.107-0.393-0.36-0.73-0.706-0.943-2.392-1.236-4.927-2.174-7.547-2.793l0.104-0.592h12.369c1.678 0.066 3.029 0.592 3.48 2.384l2.702 12.938v-0.014h0.005zM81.511 20.517l3.063-7.879c-0.038 0.085 0.63-1.626 1.019-2.683l0.526 2.432 1.778 8.126-6.386 0.005z"></path>
</symbol>
<symbol id="mastercard" viewBox="0 0 45 32">
<path fill="#ffba46" style="fill: var(--color3, #ffba46)" d="M29.808 31.285c-2.988 0-5.909-0.885-8.394-2.545s-4.422-4.019-5.566-6.78c-1.144-2.76-1.444-5.798-0.861-8.729s2.021-5.623 4.134-7.736c2.113-2.113 4.805-3.553 7.735-4.136s5.969-0.285 8.729 0.858c2.761 1.143 5.121 3.079 6.781 5.564s2.547 5.405 2.548 8.393v0.002c-0.004 4.005-1.597 7.845-4.429 10.678s-6.672 4.426-10.677 4.43z"></path>
<path fill="#e50b18" style="fill: var(--color4, #e50b18)" d="M15.108 31.285c-2.988 0-5.909-0.886-8.394-2.546s-4.421-4.020-5.565-6.78c-1.144-2.761-1.443-5.799-0.86-8.729s2.022-5.623 4.135-7.736c2.113-2.113 4.805-3.552 7.736-4.135s5.969-0.284 8.729 0.86c2.761 1.144 5.12 3.080 6.781 5.565s2.546 5.406 2.546 8.394c-0.004 4.006-1.597 7.846-4.43 10.679s-6.673 4.426-10.679 4.43z"></path>
</symbol>
<symbol id="youtube" viewBox="0 0 32 32">
<path fill="#cc8e1e" style="fill: var(--color1, #cc8e1e)" d="M13.074 20.012l6.643-3.84-6.643-3.84v7.68zM27.87 9.989c0.166 0.602 0.282 1.408 0.358 2.432 0.090 1.024 0.128 1.907 0.128 2.675l0.077 1.075c0 2.803-0.205 4.864-0.563 6.182-0.32 1.152-1.062 1.894-2.214 2.214-0.602 0.166-1.702 0.282-3.392 0.358-1.664 0.090-3.187 0.128-4.595 0.128l-2.035 0.077c-5.363 0-8.704-0.205-10.022-0.563-1.152-0.32-1.894-1.062-2.214-2.214-0.166-0.602-0.282-1.408-0.358-2.432-0.090-1.024-0.128-1.907-0.128-2.675l-0.077-1.075c0-2.803 0.205-4.864 0.563-6.182 0.32-1.152 1.062-1.894 2.214-2.214 0.602-0.166 1.702-0.282 3.392-0.358 1.664-0.090 3.187-0.128 4.595-0.128l2.035-0.077c5.363 0 8.704 0.205 10.022 0.563 1.152 0.32 1.894 1.062 2.214 2.214z"></path>
</symbol>
<symbol id="linkedin" viewBox="0 0 32 32">
<path fill="#cc8e1e" style="fill: var(--color1, #cc8e1e)" d="M24.594 4.652c0.679 0 1.33 0.27 1.81 0.75s0.75 1.131 0.75 1.81v17.92c0 0.679-0.27 1.33-0.75 1.81s-1.131 0.75-1.81 0.75h-17.92c-0.679 0-1.33-0.27-1.81-0.75s-0.75-1.131-0.75-1.81v-17.92c0-0.679 0.27-1.33 0.75-1.81s1.131-0.75 1.81-0.75h17.92zM23.954 24.492v-6.784c0-1.107-0.44-2.168-1.222-2.951s-1.844-1.222-2.951-1.222c-1.088 0-2.355 0.666-2.97 1.664v-1.421h-3.571v10.714h3.571v-6.31c0-0.986 0.794-1.792 1.779-1.792 0.475 0 0.931 0.189 1.267 0.525s0.525 0.792 0.525 1.267v6.31h3.571zM9.080 11.769c0.57 0 1.117-0.227 1.521-0.63s0.63-0.95 0.63-1.521c0-1.19-0.96-2.163-2.15-2.163-0.574 0-1.124 0.228-1.53 0.634s-0.634 0.956-0.634 1.53c0 1.19 0.973 2.15 2.163 2.15zM10.859 24.492v-10.714h-3.546v10.714h3.546z"></path>
</symbol>
<symbol id="facebook" viewBox="0 0 32 32">
<path fill="#cc8e1e" style="fill: var(--color1, #cc8e1e)" d="M28.434 16.172c0-7.066-5.734-12.8-12.8-12.8s-12.8 5.734-12.8 12.8c0 6.195 4.403 11.354 10.24 12.544v-8.704h-2.56v-3.84h2.56v-3.2c0-2.47 2.010-4.48 4.48-4.48h3.2v3.84h-2.56c-0.704 0-1.28 0.576-1.28 1.28v2.56h3.84v3.84h-3.84v8.896c6.464-0.64 11.52-6.093 11.52-12.736z"></path>
</symbol>
<symbol id="instagram" viewBox="0 0 32 32">
<path fill="#cc8e1e" style="fill: var(--color1, #cc8e1e)" d="M16.949 3.372c1.44 0.004 2.171 0.012 2.802 0.029l0.248 0.009c0.287 0.010 0.57 0.023 0.911 0.038 1.362 0.064 2.291 0.279 3.107 0.595 0.845 0.325 1.556 0.765 2.268 1.476 0.651 0.64 1.154 1.414 1.476 2.268 0.316 0.815 0.531 1.745 0.595 3.108 0.015 0.34 0.028 0.623 0.038 0.911l0.008 0.248c0.019 0.63 0.027 1.361 0.029 2.801l0.001 0.955v1.677c0.003 0.934-0.007 1.867-0.029 2.801l-0.008 0.248c-0.010 0.288-0.023 0.571-0.038 0.911-0.064 1.363-0.282 2.291-0.596 3.108-0.32 0.855-0.824 1.629-1.476 2.268-0.64 0.651-1.414 1.154-2.268 1.476-0.815 0.316-1.745 0.531-3.107 0.595-0.304 0.014-0.608 0.027-0.911 0.038l-0.248 0.008c-0.631 0.018-1.362 0.027-2.802 0.029l-2.63 0.001c-0.934 0.003-1.868-0.007-2.802-0.029l-0.248-0.008c-0.304-0.012-0.608-0.025-0.911-0.040-1.362-0.064-2.291-0.279-3.108-0.595-0.854-0.321-1.628-0.825-2.267-1.476-0.651-0.64-1.156-1.414-1.477-2.268-0.316-0.815-0.531-1.745-0.595-3.108-0.014-0.304-0.027-0.608-0.038-0.911l-0.006-0.248c-0.024-0.933-0.034-1.867-0.032-2.801v-2.632c-0.004-0.934 0.006-1.867 0.028-2.801l0.009-0.248c0.010-0.288 0.023-0.571 0.038-0.911 0.064-1.363 0.279-2.291 0.595-3.108 0.321-0.855 0.827-1.629 1.48-2.268 0.639-0.651 1.412-1.155 2.266-1.476 0.817-0.316 1.745-0.531 3.108-0.595 0.34-0.015 0.625-0.028 0.911-0.038l0.248-0.008c0.933-0.023 1.867-0.033 2.801-0.029l2.632-0.001zM15.633 9.772c-1.697 0-3.325 0.674-4.525 1.874s-1.875 2.828-1.875 4.526c0 1.697 0.674 3.325 1.875 4.525s2.828 1.875 4.526 1.875c1.697 0 3.325-0.674 4.525-1.875s1.875-2.828 1.875-4.525c0-1.697-0.674-3.325-1.875-4.526s-2.828-1.874-4.525-1.874zM15.633 12.332c0.504-0 1.004 0.099 1.47 0.292s0.889 0.476 1.246 0.832c0.357 0.356 0.639 0.78 0.832 1.246s0.292 0.965 0.293 1.469c0 0.504-0.099 1.004-0.292 1.47s-0.476 0.889-0.832 1.246c-0.357 0.357-0.78 0.64-1.246 0.833s-0.965 0.292-1.469 0.293c-1.018 0-1.995-0.405-2.715-1.125s-1.125-1.697-1.125-2.715c0-1.018 0.405-1.995 1.125-2.715s1.697-1.125 2.715-1.125zM22.354 7.852c-0.424 0-0.831 0.169-1.131 0.469s-0.469 0.707-0.469 1.131c0 0.424 0.169 0.831 0.469 1.131s0.707 0.469 1.131 0.469c0.424 0 0.831-0.169 1.131-0.469s0.469-0.707 0.469-1.131-0.169-0.831-0.469-1.131c-0.3-0.3-0.707-0.469-1.131-0.469z"></path>
</symbol>
<symbol id="telegram" viewBox="0 0 36 32">
<path fill="#fff" style="fill: var(--color5, #fff)" d="M34.648 16.172c0 8.483-7.523 15.36-16.804 15.36s-16.804-6.877-16.804-15.36c0-8.483 7.523-15.36 16.804-15.36s16.804 6.877 16.804 15.36z"></path>
<path fill="#cc8e1e" style="fill: var(--color1, #cc8e1e)" d="M23.364 10.084c0.803-0.264 1.58 0.445 1.291 1.179l-5.075 12.885c-0.315 0.801-1.548 0.816-1.887 0.023l-2.377-5.551-6.073-2.172c-0.867-0.31-0.85-1.437 0.025-1.726l14.096-4.638z"></path>
</symbol>
<symbol id="map" viewBox="0 0 34 32">
<path fill="#cc8e1e" style="fill: var(--color1, #cc8e1e)" d="M16.459 30.832l1.607 1.075c0 0 0.262 0.185 0.464-0.087s0.202-0.619 0.869-0.619l0.309-0.022c0 0 0.226-0.141 0.452-0.141l-0.238-0.304 0.738-0.565-0.071-0.152 0.56-0.489c0 0 0.5 0.13 0.774-0.597 0 0 0.059-0.337 0.309-0.358 0 0 0.143 0.098 0.202 0.348 0 0 0.226 0.326 0.25-0.261l0.071-0.271 0.167-0.196 0.179-0.185v-0.163l0.464-0.304v-0.206l0.286-0.304c0 0 0.381 0.109 0.309-0.228s0.009-0.174 0.009-0.174l0.134-0.039 0.381 0.409 0.25-0.011 0.869-0.141-0.191-0.174-0.048-0.261 0.333-0.195v-0.195l1.012-0.282 0.071 0.109 2.059-0.239 0.774-0.456 0.786-0.391 1.107 0.684-0.059 0.195 0.631 0.478 0.595-0.652-0.69-0.521 0.214-0.424h0.202l0.167-0.673 0.179-0.119h0.238v-0.087h0.298v-0.076c0 0 0.107-0.065 0-0.076s-0.214-0.054-0.214-0.054c0 0-0.048-0.011-0.048-0.076s-0.071-0.185-0.071-0.185l0.048-0.119h0.143l0.095 0.185 0.095-0.022-0.048-0.163-0.012-0.109-0.155-0.065-0.643-0.869 0.381-0.434-1.976-1.195v-0.076l0.155-0.152v-0.141l0.262-0.206 0.369-0.206-0.167-0.152-0.024-0.304 0.262-0.261 0.357-0.141h0.417v-0.076l-0.94-1.499 0.048-1.021 0.333-0.489-0.012-0.304h-0.131l-0.298 0.217-0.417 0.054-0.286-0.033-0.048-0.119-0.095-0.934 1.19-0.076 0.048-0.076 0.048-0.793h-0.167l-0.167-1.108-4.678 0.793-0.917-0.109 0.167-0.098 0.179-0.228v-0.825l-0.238-0.315-0.143-0.076-0.75-0.814 0.060-0.12 0.119-1.303-0.238-0.261h-0.179l-0.464 0.641-0.119 0.065-0.155 0.054-0.155 0.109c0 0-0.119 0.043-0.131 0.098s-0.238 0.174-0.238 0.174l-0.107 0.174-0.083 0.087-3.178 0.608-0.274 0.011-0.512-1.455-0.298 0.022-0.059-0.348-0.631-0.869-0.262-0.728 0.131-0.109-0.583-2.15 0.881-0.25-0.226-0.891 0.071-0.141-0.131-0.195-0.059-0.358h-0.191l-0.107-0.728 0.393-0.054-0.309-1.151-0.262-0.076-0.214-0.532 0.012-0.337-0.226-0.684-0.583 0.174-0.386 0.022v0.304l-0.602 0.022-0.321 0.13-0.095-0.152-0.083-0.087h-0.262c0 0-0.179 0.163-0.25 0.174s-0.274 0.033-0.274 0.033l-0.464 0.043-0.202-0.13v-0.13l-0.119-0.109-0.226 0.239-0.107 0.576-0.19 0.185h-0.25l-0.56-0.011-0.19-0.119v-0.413l-0.238-0.326-0.488 0.054-0.155 0.195h-0.202l-0.19-0.13-1.083 0.424-0.595 0.022-0.393-1.053h-0.929l-0.167 0.152-0.69 0.022-0.309 0.576-0.286-0.206-0.071 0.065 0.262 0.478-0.095 0.054-0.286-0.163-0.214 0.185-0.262-0.195-0.286 0.054-0.071 0.228-0.405 0.293-0.179 0.054 0.381 0.814c0 0 0.583 0.717 0.429 1.629s-0.226 0.749-0.226 0.749c0 0-0.131 0.087-0.095 0.391l-0.643 0.293-0.309-0.25-0.071 0.119-0.143 0.076-0.095-0.119-0.833 0.195c0 0-0.357 0.228-0.488 0.901l-0.060 0.054-0.667-0.054-0.321-0.13v0.087c0 0 0.417 0.478 0.25 0.738l-0.25 0.901c0 0-0.107 0.163 0 0.315l-0.048 2.042 0.393 0.065-0.202 1.803-1.155 1.694 2.262 0.424c0 0 0.19 1.032-0.238 1.738l-0.714-0.011c0 0-0.512 0.326-0.631 0.369s0.012 0.402 0.012 0.402l0.167 0.141-0.036 0.88-0.167 0.076-0.179 0.836c0 0-1.287 0.076-1.488 0.923 0 0-0.071 0.326 0.393 1.151l0.012 0.434 0.071-0.011 0.738-0.293 0.012 0.945 2.428 0.043 0.119-0.185 0.738-0.043 0.155-0.206 0.274 0.022 0.071 0.076-0.226 0.63 0.345 0.109 0.274 0.228-0.036 0.706h0.179l0.214 0.282 0.071 0.119-0.012 0.239 0.464 0.174 0.024 0.141 0.476 0.304 0.488 0.217 0.583 0.25 0.309 0.033 0.024 0.391 0.631 0.543 0.678 0.358 0.393 0.119 0.56 0.38 0.214 0.239-0.44 0.793v0.532l0.25 0.456 0.464 0.065-0.214 0.304-0.083 0.206 0.167 0.391-0.238 0.489 0.202 0.152-0.179 0.554 0.238 0.076-0.036 0.195 0.405 0.043 2.095-0.054 0.048-0.282 1.357-0.022v-0.141l0.476-0.5 0.036-0.109 0.143-0.065 0.607 0.51 0.452 0.098z"></path>
<path fill="#fff" style="fill: var(--color5, #fff)" d="M5.927 12.803v-1.009h0.14l0.416 0.657c0.012 0.019 0.028 0.046 0.049 0.081s0.041 0.070 0.062 0.106c-0.001-0.035-0.002-0.072-0.003-0.11s-0.001-0.065-0.001-0.082v-0.652h0.122v1.009h-0.142l-0.37-0.584c-0.014-0.022-0.035-0.055-0.062-0.1s-0.059-0.098-0.095-0.159c0.002 0.063 0.004 0.116 0.005 0.159s0.001 0.075 0.001 0.098v0.585h-0.122zM7.115 12.814c-0.071 0-0.13-0.018-0.178-0.055s-0.071-0.091-0.071-0.162c0-0.041 0.008-0.075 0.024-0.1s0.038-0.046 0.064-0.060c0.027-0.015 0.058-0.026 0.091-0.034s0.069-0.014 0.105-0.018c0.046-0.006 0.082-0.011 0.108-0.014s0.045-0.008 0.056-0.016c0.011-0.007 0.017-0.020 0.017-0.038v-0.007c0-0.039-0.014-0.071-0.042-0.096s-0.066-0.038-0.117-0.038c-0.050 0-0.091 0.012-0.123 0.037s-0.049 0.054-0.051 0.089h-0.117c0.002-0.044 0.016-0.083 0.041-0.117s0.059-0.061 0.102-0.081 0.093-0.030 0.149-0.030c0.084 0 0.15 0.022 0.199 0.065s0.074 0.1 0.074 0.171v0.493h-0.114v-0.102h-0.003c-0.009 0.017-0.021 0.035-0.038 0.052s-0.039 0.032-0.068 0.043c-0.028 0.011-0.064 0.017-0.107 0.017zM7.131 12.711c0.047 0 0.085-0.008 0.114-0.025s0.051-0.039 0.064-0.066c0.014-0.027 0.020-0.056 0.020-0.087v-0.089c-0.009 0.008-0.031 0.016-0.068 0.022s-0.076 0.012-0.117 0.018c-0.028 0.004-0.054 0.010-0.079 0.019s-0.044 0.021-0.060 0.037c-0.015 0.016-0.023 0.037-0.023 0.064 0 0.033 0.013 0.060 0.039 0.079s0.063 0.028 0.108 0.028zM7.865 12.819c-0.051 0-0.097-0.008-0.139-0.025s-0.075-0.042-0.101-0.076c-0.026-0.034-0.040-0.078-0.043-0.129h0.114c0.008 0.088 0.064 0.131 0.167 0.131 0.050 0 0.089-0.010 0.117-0.031s0.043-0.047 0.043-0.079c0-0.027-0.010-0.049-0.030-0.065s-0.046-0.028-0.078-0.035l-0.115-0.027c-0.135-0.032-0.202-0.099-0.202-0.203 0-0.041 0.011-0.077 0.033-0.108s0.053-0.056 0.091-0.074c0.039-0.018 0.084-0.027 0.136-0.027 0.050 0 0.094 0.009 0.133 0.028s0.071 0.045 0.094 0.079c0.023 0.034 0.036 0.075 0.037 0.123h-0.112c-0-0.038-0.014-0.069-0.042-0.094s-0.064-0.037-0.11-0.037c-0.044 0-0.079 0.011-0.105 0.032s-0.039 0.047-0.039 0.078c0 0.027 0.010 0.049 0.030 0.066s0.047 0.028 0.081 0.037l0.115 0.027c0.069 0.016 0.119 0.041 0.151 0.073s0.048 0.074 0.048 0.125c0 0.044-0.012 0.082-0.036 0.114s-0.057 0.056-0.098 0.072c-0.041 0.017-0.088 0.025-0.14 0.025zM8.252 12.803v-0.088l0.392-0.522v-0.003h-0.392v-0.103h0.534v0.092l-0.388 0.518v0.003h0.39v0.103h-0.537zM9.503 12.814c-0.071 0-0.13-0.018-0.178-0.055s-0.071-0.091-0.071-0.162c0-0.041 0.008-0.075 0.024-0.1s0.038-0.046 0.064-0.060c0.027-0.015 0.058-0.026 0.091-0.034s0.069-0.014 0.105-0.018c0.046-0.006 0.082-0.011 0.108-0.014s0.045-0.008 0.056-0.016c0.011-0.007 0.017-0.020 0.017-0.038v-0.007c0-0.039-0.014-0.071-0.042-0.096s-0.066-0.038-0.117-0.038c-0.050 0-0.091 0.012-0.123 0.037s-0.049 0.054-0.052 0.089h-0.117c0.002-0.044 0.016-0.083 0.041-0.117s0.059-0.061 0.102-0.081 0.093-0.030 0.149-0.030c0.084 0 0.15 0.022 0.198 0.065s0.074 0.1 0.074 0.171v0.493h-0.114v-0.102h-0.003c-0.009 0.017-0.021 0.035-0.038 0.052s-0.039 0.032-0.068 0.043c-0.028 0.011-0.064 0.017-0.107 0.017zM9.519 12.711c0.047 0 0.085-0.008 0.114-0.025s0.051-0.039 0.064-0.066c0.014-0.027 0.020-0.056 0.020-0.087v-0.089c-0.009 0.008-0.031 0.016-0.068 0.022s-0.076 0.012-0.117 0.018c-0.027 0.004-0.054 0.010-0.079 0.019s-0.044 0.021-0.060 0.037c-0.015 0.016-0.023 0.037-0.023 0.064 0 0.033 0.013 0.060 0.039 0.079s0.063 0.028 0.108 0.028zM10.277 12.817c-0.062 0-0.116-0.016-0.163-0.047s-0.083-0.075-0.108-0.131c-0.026-0.056-0.039-0.121-0.039-0.194s0.013-0.138 0.039-0.194c0.026-0.056 0.062-0.1 0.108-0.131s0.101-0.047 0.163-0.047c0.046 0 0.090 0.010 0.129 0.030s0.071 0.049 0.094 0.089h0.001v-0.4h0.115v1.009h-0.112v-0.108h-0.001c-0.026 0.041-0.058 0.072-0.098 0.092s-0.082 0.030-0.129 0.030zM10.294 12.713c0.066 0 0.119-0.024 0.158-0.073s0.059-0.114 0.059-0.194c0-0.081-0.020-0.146-0.059-0.194s-0.091-0.074-0.158-0.074c-0.062 0-0.113 0.023-0.152 0.068s-0.059 0.112-0.059 0.2c0 0.088 0.020 0.154 0.059 0.2s0.091 0.068 0.152 0.068zM10.787 12.803v-0.715h0.11v0.112h0.003c0.013-0.037 0.034-0.067 0.062-0.089s0.065-0.034 0.11-0.034c0.010 0 0.020 0 0.029 0.001s0.016 0.002 0.020 0.003v0.115c-0.005-0.001-0.013-0.003-0.026-0.005s-0.027-0.003-0.044-0.003c-0.040 0-0.074 0.014-0.104 0.042s-0.044 0.072-0.044 0.133v0.44h-0.115zM11.516 12.819c-0.070 0-0.13-0.016-0.179-0.048s-0.087-0.076-0.113-0.132c-0.026-0.056-0.039-0.121-0.039-0.192s0.014-0.137 0.041-0.194c0.028-0.057 0.066-0.101 0.114-0.133s0.105-0.049 0.168-0.049c0.066 0 0.124 0.016 0.173 0.047s0.086 0.076 0.112 0.132c0.027 0.056 0.040 0.122 0.040 0.196v0.032h-0.535c0.003 0.070 0.023 0.127 0.060 0.171s0.090 0.066 0.158 0.066c0.051 0 0.093-0.012 0.125-0.035s0.054-0.054 0.065-0.091h0.115c-0.009 0.046-0.028 0.086-0.056 0.121s-0.064 0.061-0.107 0.081c-0.042 0.019-0.090 0.029-0.142 0.029zM11.299 12.38h0.419c-0.006-0.063-0.028-0.113-0.066-0.15s-0.086-0.056-0.144-0.056-0.107 0.019-0.144 0.056c-0.037 0.037-0.059 0.087-0.065 0.15zM12.214 12.819c-0.051 0-0.097-0.008-0.139-0.025s-0.075-0.042-0.101-0.076c-0.026-0.034-0.040-0.078-0.043-0.129h0.114c0.008 0.088 0.064 0.131 0.167 0.131 0.050 0 0.089-0.010 0.117-0.031s0.043-0.047 0.043-0.079c0-0.027-0.010-0.049-0.030-0.065s-0.046-0.028-0.078-0.035l-0.115-0.027c-0.135-0.032-0.202-0.099-0.202-0.203 0-0.041 0.011-0.077 0.033-0.108s0.053-0.056 0.091-0.074c0.039-0.018 0.084-0.027 0.135-0.027 0.050 0 0.094 0.009 0.133 0.028s0.071 0.045 0.094 0.079c0.024 0.034 0.036 0.075 0.037 0.123h-0.112c-0-0.038-0.014-0.069-0.042-0.094s-0.064-0.037-0.11-0.037c-0.044 0-0.079 0.011-0.105 0.032s-0.039 0.047-0.039 0.078c0 0.027 0.010 0.049 0.030 0.066s0.047 0.028 0.081 0.037l0.115 0.027c0.069 0.016 0.119 0.041 0.151 0.073s0.048 0.074 0.048 0.125c0 0.044-0.012 0.082-0.036 0.114s-0.057 0.056-0.098 0.072c-0.041 0.017-0.088 0.025-0.14 0.025z"></path>
<path fill="#fff" style="fill: var(--color5, #fff)" d="M6.354 16.303h0.5c0-0.078 0.016-0.15 0.047-0.216s0.071-0.124 0.119-0.172h0.028c-0.004 0.024-0.006 0.049-0.008 0.075-0.002 0.022-0.004 0.046-0.006 0.072 0 0.026 0 0.051 0 0.075 0 0.035 0 0.067 0 0.094 0.002 0.026 0.004 0.049 0.006 0.069 0.002 0.022 0.005 0.042 0.008 0.058h-1.096v-0.028l0.167-0.042v-1.804l-0.167-0.042v-0.028h0.569v0.028l-0.167 0.042v1.818zM7.782 15.082c-0.031 0-0.064 0.011-0.097 0.033-0.031 0.020-0.061 0.056-0.089 0.105-0.026 0.048-0.048 0.113-0.067 0.194-0.017 0.081-0.025 0.183-0.025 0.305s0.008 0.224 0.025 0.305c0.019 0.081 0.041 0.147 0.067 0.197 0.028 0.048 0.057 0.083 0.089 0.105 0.033 0.020 0.066 0.031 0.097 0.031s0.063-0.010 0.094-0.031c0.033-0.022 0.063-0.057 0.089-0.105 0.028-0.050 0.050-0.116 0.067-0.197 0.018-0.081 0.028-0.183 0.028-0.305s-0.009-0.224-0.028-0.305c-0.017-0.081-0.039-0.146-0.067-0.194-0.026-0.050-0.056-0.085-0.089-0.105-0.031-0.022-0.063-0.033-0.094-0.033zM7.782 15.040c0.068 0 0.134 0.016 0.197 0.047 0.065 0.030 0.121 0.074 0.169 0.133 0.050 0.057 0.089 0.129 0.117 0.214 0.030 0.083 0.044 0.179 0.044 0.286s-0.015 0.204-0.044 0.289c-0.028 0.083-0.067 0.155-0.117 0.214-0.048 0.057-0.105 0.102-0.169 0.133-0.063 0.030-0.129 0.044-0.197 0.044-0.070 0-0.137-0.015-0.2-0.044-0.063-0.031-0.119-0.076-0.169-0.133-0.048-0.059-0.087-0.13-0.117-0.214-0.028-0.085-0.042-0.181-0.042-0.289s0.014-0.203 0.042-0.286c0.030-0.085 0.068-0.156 0.117-0.214 0.050-0.059 0.106-0.104 0.169-0.133 0.063-0.031 0.13-0.047 0.2-0.047zM8.919 16.289l0.166 0.042v0.028h-0.555v-0.028l0.167-0.042v-1.138l-0.167-0.042v-0.028h0.389v0.333c0.024-0.068 0.053-0.13 0.086-0.186 0.030-0.048 0.066-0.092 0.108-0.13s0.093-0.058 0.153-0.058c0.020 0 0.040 0.002 0.058 0.006 0.018 0.002 0.035 0.005 0.050 0.008 0.017 0.006 0.031 0.010 0.044 0.014l-0.083 0.208c-0.011-0.006-0.023-0.012-0.036-0.019-0.011-0.006-0.025-0.010-0.042-0.014-0.015-0.006-0.031-0.008-0.047-0.008-0.048 0-0.091 0.013-0.128 0.039s-0.068 0.055-0.092 0.086c-0.030 0.037-0.054 0.079-0.072 0.125v0.805zM9.781 15.72c0 0.118 0.008 0.217 0.025 0.297 0.019 0.080 0.042 0.144 0.069 0.194 0.030 0.048 0.062 0.082 0.097 0.103 0.037 0.020 0.075 0.031 0.114 0.031 0.048 0 0.094-0.009 0.136-0.028s0.080-0.043 0.114-0.075c0.033-0.031 0.060-0.069 0.080-0.114 0.022-0.044 0.037-0.092 0.044-0.144h0.042c-0.007 0.059-0.024 0.115-0.050 0.167-0.024 0.050-0.056 0.093-0.094 0.13s-0.084 0.066-0.136 0.086c-0.050 0.022-0.104 0.033-0.164 0.033-0.070 0-0.137-0.015-0.2-0.044-0.063-0.031-0.119-0.076-0.169-0.133-0.048-0.059-0.087-0.13-0.117-0.214-0.028-0.085-0.042-0.181-0.042-0.289 0-0.111 0.014-0.209 0.042-0.294s0.064-0.155 0.108-0.211c0.046-0.057 0.099-0.101 0.158-0.13 0.061-0.030 0.125-0.044 0.191-0.044s0.13 0.015 0.189 0.044c0.061 0.030 0.114 0.073 0.158 0.13 0.046 0.056 0.083 0.126 0.111 0.211s0.042 0.183 0.042 0.294h-0.749zM10.031 15.082c-0.028 0-0.056 0.009-0.083 0.028-0.028 0.017-0.054 0.047-0.078 0.092s-0.044 0.105-0.061 0.18c-0.015 0.074-0.024 0.168-0.028 0.283h0.499c-0.004-0.115-0.014-0.209-0.031-0.283-0.015-0.076-0.034-0.136-0.058-0.18s-0.050-0.075-0.078-0.092c-0.028-0.018-0.056-0.028-0.083-0.028zM10.906 16.289v-1.138l-0.166-0.042v-0.028h0.389v0.166c0.019-0.037 0.044-0.071 0.075-0.103 0.026-0.026 0.059-0.050 0.1-0.072s0.089-0.033 0.144-0.033c0.070 0 0.128 0.013 0.172 0.039 0.046 0.026 0.083 0.055 0.111 0.086 0.033 0.037 0.059 0.079 0.078 0.125 0.024-0.046 0.053-0.088 0.086-0.125 0.030-0.031 0.066-0.060 0.108-0.086s0.094-0.039 0.153-0.039c0.056 0 0.106 0.010 0.153 0.031 0.048 0.020 0.090 0.049 0.125 0.086 0.035 0.035 0.062 0.079 0.080 0.13 0.020 0.050 0.031 0.106 0.031 0.169v0.833l0.166 0.042v0.028h-0.541v-0.028l0.153-0.042v-0.833c0-0.131-0.021-0.224-0.064-0.277-0.041-0.056-0.089-0.083-0.144-0.083-0.046 0-0.086 0.013-0.119 0.039s-0.062 0.055-0.086 0.086c-0.028 0.037-0.052 0.079-0.072 0.125v0.944l0.153 0.042v0.028h-0.527v-0.028l0.153-0.042v-0.833c0-0.131-0.021-0.224-0.064-0.277-0.041-0.056-0.089-0.083-0.144-0.083-0.046 0-0.086 0.013-0.119 0.039s-0.062 0.055-0.086 0.086c-0.028 0.037-0.052 0.079-0.072 0.125v0.944l0.153 0.042v0.028h-0.541v-0.028l0.166-0.042zM13.041 16.081c0.043 0 0.079 0.017 0.108 0.050 0.030 0.031 0.044 0.075 0.044 0.13 0 0.081-0.013 0.147-0.039 0.197-0.024 0.050-0.051 0.090-0.080 0.119-0.033 0.033-0.072 0.058-0.117 0.075l-0.028-0.044c0.031-0.015 0.059-0.032 0.083-0.053 0.020-0.017 0.039-0.038 0.056-0.064 0.019-0.026 0.028-0.056 0.028-0.092 0-0.007-0.001-0.014-0.003-0.019-0.002-0.004-0.004-0.007-0.006-0.011l-0.006-0.011c-0.004 0.004-0.009 0.006-0.017 0.008-0.015 0.004-0.028 0.006-0.039 0.006-0.043 0-0.077-0.012-0.103-0.036-0.024-0.026-0.036-0.060-0.036-0.103s0.015-0.079 0.044-0.108c0.030-0.030 0.066-0.044 0.108-0.044zM6.895 18.422c0-0.194-0.011-0.354-0.033-0.48s-0.050-0.225-0.083-0.297-0.070-0.122-0.111-0.15c-0.041-0.030-0.080-0.044-0.119-0.044s-0.079 0.015-0.119 0.044c-0.041 0.028-0.078 0.078-0.111 0.15s-0.061 0.171-0.083 0.297c-0.022 0.126-0.033 0.286-0.033 0.48s0.011 0.354 0.033 0.48c0.022 0.126 0.050 0.225 0.083 0.297s0.070 0.123 0.111 0.153c0.041 0.028 0.080 0.042 0.119 0.042s0.079-0.014 0.119-0.042c0.041-0.030 0.078-0.080 0.111-0.153s0.061-0.171 0.083-0.297c0.022-0.126 0.033-0.286 0.033-0.48zM7.159 18.422c0 0.178-0.018 0.33-0.053 0.458s-0.081 0.233-0.139 0.316c-0.057 0.081-0.123 0.142-0.197 0.18-0.072 0.039-0.146 0.058-0.222 0.058s-0.151-0.019-0.225-0.058c-0.072-0.039-0.137-0.099-0.194-0.18-0.057-0.083-0.104-0.189-0.139-0.316s-0.053-0.28-0.053-0.458c0-0.178 0.018-0.33 0.053-0.458s0.081-0.232 0.139-0.314c0.057-0.083 0.122-0.144 0.194-0.183 0.074-0.039 0.149-0.058 0.225-0.058s0.15 0.019 0.222 0.058c0.074 0.039 0.14 0.1 0.197 0.183 0.057 0.081 0.104 0.186 0.139 0.314s0.053 0.28 0.053 0.458zM7.809 19.324l0.167 0.042v0.028h-0.569v-0.028l0.167-0.042v-1.762h-0.277v-0.042l0.513-0.111v1.915zM9.044 18.533v0.111h-0.888v-0.111h0.888zM10.196 18.422c0-0.194-0.011-0.354-0.033-0.48s-0.050-0.225-0.083-0.297-0.070-0.122-0.111-0.15c-0.041-0.030-0.080-0.044-0.119-0.044s-0.079 0.015-0.119 0.044c-0.041 0.028-0.078 0.078-0.111 0.15s-0.061 0.171-0.083 0.297c-0.022 0.126-0.033 0.286-0.033 0.48s0.011 0.354 0.033 0.48c0.022 0.126 0.050 0.225 0.083 0.297s0.070 0.123 0.111 0.153c0.041 0.028 0.080 0.042 0.119 0.042s0.079-0.014 0.119-0.042c0.041-0.030 0.078-0.080 0.111-0.153s0.061-0.171 0.083-0.297c0.022-0.126 0.033-0.286 0.033-0.48zM10.46 18.422c0 0.178-0.018 0.33-0.053 0.458s-0.081 0.233-0.139 0.316c-0.057 0.081-0.123 0.142-0.197 0.18-0.072 0.039-0.146 0.058-0.222 0.058s-0.151-0.019-0.225-0.058c-0.072-0.039-0.137-0.099-0.194-0.18-0.057-0.083-0.104-0.189-0.139-0.316s-0.053-0.28-0.053-0.458 0.018-0.33 0.053-0.458c0.035-0.128 0.081-0.232 0.139-0.314 0.057-0.083 0.122-0.144 0.194-0.183 0.074-0.039 0.149-0.058 0.225-0.058s0.15 0.019 0.222 0.058c0.074 0.039 0.14 0.1 0.197 0.183 0.057 0.081 0.104 0.186 0.139 0.314s0.053 0.28 0.053 0.458zM11.638 18.422c0-0.194-0.011-0.354-0.033-0.48s-0.050-0.225-0.083-0.297-0.070-0.122-0.111-0.15c-0.041-0.030-0.080-0.044-0.119-0.044s-0.079 0.015-0.119 0.044c-0.041 0.028-0.078 0.078-0.111 0.15s-0.061 0.171-0.083 0.297c-0.022 0.126-0.033 0.286-0.033 0.48s0.011 0.354 0.033 0.48c0.022 0.126 0.050 0.225 0.083 0.297s0.070 0.123 0.111 0.153c0.041 0.028 0.080 0.042 0.119 0.042s0.079-0.014 0.119-0.042c0.041-0.030 0.078-0.080 0.111-0.153s0.061-0.171 0.083-0.297c0.022-0.126 0.033-0.286 0.033-0.48zM11.901 18.422c0 0.178-0.018 0.33-0.053 0.458s-0.081 0.233-0.139 0.316c-0.057 0.081-0.123 0.142-0.197 0.18-0.072 0.039-0.146 0.058-0.222 0.058s-0.151-0.019-0.225-0.058c-0.072-0.039-0.137-0.099-0.194-0.18-0.057-0.083-0.104-0.189-0.139-0.316s-0.053-0.28-0.053-0.458 0.018-0.33 0.053-0.458c0.035-0.128 0.081-0.232 0.139-0.314 0.057-0.083 0.122-0.144 0.194-0.183 0.074-0.039 0.149-0.058 0.225-0.058s0.15 0.019 0.222 0.058c0.074 0.039 0.14 0.1 0.197 0.183 0.057 0.081 0.104 0.186 0.139 0.314s0.053 0.28 0.053 0.458zM12.538 19.38c0.056 0 0.109-0.013 0.161-0.039s0.097-0.065 0.136-0.117c0.041-0.052 0.073-0.117 0.097-0.194 0.024-0.080 0.036-0.171 0.036-0.275 0-0.094-0.014-0.178-0.042-0.25-0.026-0.074-0.063-0.137-0.111-0.189-0.046-0.052-0.103-0.091-0.169-0.117-0.067-0.028-0.14-0.042-0.219-0.042-0.031 0-0.061 0.003-0.089 0.008s-0.053 0.012-0.075 0.019c-0.026 0.007-0.050 0.017-0.072 0.028l0.153-0.766c0 0 0.009 0.002 0.028 0.006s0.043 0.007 0.072 0.011c0.031 0.004 0.066 0.007 0.103 0.011 0.039 0.002 0.078 0.003 0.117 0.003 0.059 0 0.116-0.003 0.169-0.008 0.056-0.006 0.104-0.012 0.147-0.019 0.050-0.007 0.097-0.017 0.142-0.028l-0.003 0.028c-0.070 0.078-0.167 0.137-0.291 0.178-0.124 0.039-0.28 0.058-0.469 0.058l-0.083 0.416c0.018-0.004 0.039-0.008 0.061-0.014 0.020-0.004 0.044-0.006 0.072-0.008 0.030-0.004 0.064-0.006 0.103-0.006 0.111 0 0.211 0.017 0.3 0.050s0.165 0.080 0.228 0.139c0.063 0.059 0.111 0.131 0.144 0.216 0.033 0.083 0.050 0.175 0.050 0.275s-0.017 0.192-0.050 0.277c-0.033 0.083-0.080 0.155-0.139 0.214-0.057 0.059-0.128 0.105-0.211 0.139-0.081 0.033-0.17 0.050-0.266 0.050-0.072 0-0.139-0.012-0.2-0.036s-0.114-0.057-0.158-0.1c-0.044-0.043-0.080-0.092-0.105-0.15-0.024-0.057-0.036-0.119-0.036-0.186 0-0.131 0.027-0.228 0.080-0.291 0.056-0.065 0.121-0.097 0.197-0.097 0.009 0 0.018 0.001 0.028 0.003 0.011 0.002 0.021 0.004 0.031 0.006s0.018 0.004 0.025 0.006l-0.056 0.222c-0.083 0-0.146 0.019-0.189 0.058-0.041 0.037-0.061 0.087-0.061 0.15 0 0.044 0.010 0.089 0.031 0.133 0.022 0.043 0.052 0.081 0.089 0.117 0.037 0.033 0.080 0.060 0.13 0.080 0.052 0.020 0.107 0.031 0.166 0.031zM13.953 17.479v-0.028h0.583v0.028l-0.166 0.042 0.402 1.429 0.402-1.54h0.042l0.455 1.54 0.364-1.401-0.18-0.069v-0.028h0.416v0.028l-0.18 0.069-0.486 1.887h-0.042l-0.458-1.554-0.402 1.554h-0.042l-0.541-1.915-0.166-0.042zM16.992 18.714c-0.161 0-0.28 0.036-0.358 0.108-0.076 0.070-0.114 0.168-0.114 0.294 0 0.083 0.020 0.148 0.061 0.194s0.085 0.069 0.133 0.069c0.044 0 0.083-0.013 0.117-0.039 0.035-0.026 0.065-0.055 0.089-0.086 0.028-0.035 0.052-0.077 0.072-0.125v-0.416zM16.784 18.117c-0.055 0-0.102 0.019-0.139 0.058-0.037 0.037-0.055 0.087-0.055 0.15 0 0.015 0 0.028 0 0.039 0.002 0.011 0.004 0.021 0.006 0.031s0.005 0.019 0.008 0.028l-0.222 0.055c-0.004-0.006-0.006-0.013-0.008-0.022s-0.004-0.019-0.006-0.031c0-0.011 0-0.026 0-0.044 0-0.039 0.009-0.076 0.028-0.111 0.019-0.037 0.045-0.069 0.080-0.097 0.037-0.030 0.080-0.053 0.13-0.069 0.052-0.018 0.111-0.028 0.178-0.028 0.133 0 0.238 0.038 0.314 0.114 0.078 0.076 0.117 0.177 0.117 0.302v0.833l0.166 0.042v0.028h-0.389v-0.166c-0.020 0.039-0.046 0.074-0.078 0.105-0.026 0.026-0.059 0.049-0.1 0.069-0.039 0.022-0.086 0.033-0.142 0.033-0.133 0-0.234-0.031-0.302-0.094-0.067-0.063-0.1-0.147-0.1-0.253 0-0.052 0.014-0.104 0.042-0.155 0.030-0.052 0.073-0.098 0.13-0.139 0.059-0.041 0.134-0.073 0.225-0.097 0.091-0.026 0.199-0.039 0.325-0.039v-0.166c0-0.139-0.021-0.236-0.064-0.291-0.041-0.055-0.089-0.083-0.144-0.083zM17.936 19.324l0.166 0.042v0.028h-0.555v-0.028l0.166-0.042v-1.138l-0.166-0.042v-0.028h0.389v0.333c0.024-0.068 0.053-0.13 0.086-0.186 0.030-0.048 0.066-0.092 0.108-0.13s0.093-0.058 0.153-0.058c0.020 0 0.040 0.002 0.058 0.006 0.019 0.002 0.035 0.005 0.050 0.008 0.017 0.006 0.031 0.010 0.044 0.014l-0.083 0.208c-0.011-0.006-0.023-0.012-0.036-0.019-0.011-0.006-0.025-0.010-0.042-0.014-0.015-0.006-0.031-0.008-0.047-0.008-0.048 0-0.091 0.013-0.128 0.039s-0.067 0.055-0.092 0.086c-0.030 0.037-0.054 0.079-0.072 0.125v0.805zM19.047 19.435c-0.059 0-0.11-0.007-0.153-0.022-0.043-0.013-0.077-0.029-0.103-0.047-0.031-0.020-0.057-0.043-0.078-0.069-0.007 0.028-0.023 0.054-0.047 0.078-0.022 0.024-0.044 0.040-0.064 0.047h-0.042c0.002-0.024 0.004-0.049 0.006-0.075 0.002-0.022 0.004-0.045 0.006-0.069 0.002-0.026 0.003-0.052 0.003-0.078 0-0.028-0.001-0.055-0.003-0.083s-0.004-0.053-0.006-0.075c-0.002-0.026-0.004-0.052-0.006-0.078h0.042c0.035 0.133 0.089 0.236 0.161 0.308s0.157 0.108 0.255 0.108c0.078 0 0.141-0.024 0.189-0.072 0.050-0.048 0.075-0.107 0.075-0.178 0-0.050-0.018-0.093-0.053-0.13-0.033-0.037-0.076-0.070-0.128-0.1-0.052-0.031-0.107-0.062-0.166-0.092s-0.115-0.063-0.166-0.1c-0.052-0.037-0.095-0.080-0.13-0.13-0.033-0.050-0.050-0.111-0.050-0.183 0-0.041 0.009-0.080 0.028-0.119s0.043-0.073 0.075-0.103c0.033-0.030 0.073-0.053 0.119-0.069 0.046-0.018 0.097-0.028 0.153-0.028 0.048 0 0.090 0.007 0.125 0.022 0.037 0.015 0.068 0.031 0.094 0.047 0.028 0.020 0.052 0.044 0.072 0.069 0.007-0.028 0.022-0.054 0.044-0.078 0.024-0.024 0.046-0.040 0.067-0.047h0.042c-0.004 0.024-0.006 0.049-0.008 0.075-0.002 0.022-0.004 0.046-0.006 0.072 0 0.026 0 0.051 0 0.075 0 0.028 0 0.056 0 0.086 0.002 0.028 0.004 0.053 0.006 0.075 0.002 0.026 0.005 0.051 0.008 0.075h-0.042c-0.035-0.133-0.087-0.236-0.155-0.308s-0.142-0.108-0.219-0.108c-0.063 0-0.116 0.021-0.158 0.064-0.043 0.041-0.064 0.089-0.064 0.144 0 0.046 0.018 0.086 0.053 0.119s0.079 0.065 0.13 0.094c0.052 0.028 0.108 0.056 0.169 0.086 0.063 0.030 0.12 0.064 0.172 0.103s0.095 0.085 0.13 0.139c0.035 0.054 0.053 0.118 0.053 0.194 0 0.044-0.011 0.089-0.033 0.133-0.020 0.043-0.050 0.081-0.089 0.117-0.037 0.033-0.082 0.060-0.136 0.080-0.052 0.020-0.109 0.031-0.172 0.031zM20.463 19.338c0-0.078 0.016-0.146 0.047-0.205 0.031-0.061 0.071-0.113 0.119-0.155h0.028c-0.004 0.024-0.006 0.048-0.008 0.072-0.002 0.020-0.004 0.044-0.006 0.069 0 0.024 0 0.046 0 0.067 0 0.031 0 0.060 0 0.086 0.002 0.024 0.004 0.045 0.006 0.064 0.002 0.020 0.005 0.040 0.008 0.058h-0.985l0.694-1.221h-0.444c0 0.078-0.016 0.147-0.047 0.208-0.031 0.059-0.071 0.11-0.119 0.153h-0.028c0.002-0.024 0.004-0.048 0.006-0.072 0.002-0.020 0.004-0.043 0.006-0.067 0.002-0.026 0.003-0.049 0.003-0.069 0-0.031-0.001-0.059-0.003-0.083-0.002-0.026-0.004-0.048-0.006-0.067-0.002-0.020-0.004-0.040-0.006-0.058h0.93l-0.694 1.221h0.5zM21.599 18.714c-0.161 0-0.28 0.036-0.358 0.108-0.076 0.070-0.114 0.168-0.114 0.294 0 0.083 0.020 0.148 0.061 0.194s0.085 0.069 0.133 0.069c0.044 0 0.083-0.013 0.117-0.039 0.035-0.026 0.065-0.055 0.089-0.086 0.028-0.035 0.052-0.077 0.072-0.125v-0.416zM21.391 18.117c-0.055 0-0.102 0.019-0.139 0.058-0.037 0.037-0.055 0.087-0.055 0.15 0 0.015 0 0.028 0 0.039 0.002 0.011 0.004 0.021 0.006 0.031s0.005 0.019 0.008 0.028l-0.222 0.055c-0.004-0.006-0.006-0.013-0.008-0.022s-0.004-0.019-0.006-0.031c0-0.011 0-0.026 0-0.044 0-0.039 0.009-0.076 0.028-0.111 0.019-0.037 0.045-0.069 0.080-0.097 0.037-0.030 0.080-0.053 0.13-0.069 0.052-0.018 0.111-0.028 0.178-0.028 0.133 0 0.238 0.038 0.314 0.114 0.078 0.076 0.117 0.177 0.117 0.302v0.833l0.166 0.042v0.028h-0.389v-0.166c-0.020 0.039-0.046 0.074-0.078 0.105-0.026 0.026-0.059 0.049-0.1 0.069-0.039 0.022-0.086 0.033-0.142 0.033-0.133 0-0.234-0.031-0.302-0.094-0.067-0.063-0.1-0.147-0.1-0.253 0-0.052 0.014-0.104 0.042-0.155 0.030-0.052 0.073-0.098 0.13-0.139 0.059-0.041 0.134-0.073 0.225-0.097 0.091-0.026 0.199-0.039 0.325-0.039v-0.166c0-0.139-0.021-0.236-0.064-0.291-0.041-0.055-0.089-0.083-0.144-0.083zM22.599 19.435h-0.042l-0.416-1.249-0.166-0.042v-0.028h0.555v0.028l-0.153 0.042 0.289 0.869 0.308-0.98h0.042l0.355 0.98 0.255-0.841-0.18-0.069v-0.028h0.416v0.028l-0.18 0.069-0.375 1.221h-0.042l-0.358-0.982-0.308 0.982zM24.654 18.714c-0.161 0-0.28 0.036-0.358 0.108-0.076 0.070-0.114 0.168-0.114 0.294 0 0.083 0.020 0.148 0.061 0.194s0.085 0.069 0.133 0.069c0.044 0 0.083-0.013 0.117-0.039 0.035-0.026 0.065-0.055 0.089-0.086 0.028-0.035 0.052-0.077 0.072-0.125v-0.416zM24.446 18.117c-0.055 0-0.102 0.019-0.139 0.058-0.037 0.037-0.055 0.087-0.055 0.15 0 0.015 0 0.028 0 0.039 0.002 0.011 0.004 0.021 0.006 0.031s0.005 0.019 0.008 0.028l-0.222 0.055c-0.004-0.006-0.006-0.013-0.008-0.022s-0.004-0.019-0.006-0.031c0-0.011 0-0.026 0-0.044 0-0.039 0.009-0.076 0.028-0.111 0.018-0.037 0.045-0.069 0.080-0.097 0.037-0.030 0.080-0.053 0.13-0.069 0.052-0.018 0.111-0.028 0.178-0.028 0.133 0 0.238 0.038 0.314 0.114 0.078 0.076 0.117 0.177 0.117 0.302v0.833l0.166 0.042v0.028h-0.389v-0.166c-0.020 0.039-0.046 0.074-0.078 0.105-0.026 0.026-0.059 0.049-0.1 0.069-0.039 0.022-0.086 0.033-0.142 0.033-0.133 0-0.234-0.031-0.302-0.094-0.067-0.063-0.1-0.147-0.1-0.253 0-0.052 0.014-0.104 0.042-0.155 0.030-0.052 0.073-0.098 0.13-0.139 0.059-0.041 0.134-0.073 0.225-0.097 0.091-0.026 0.199-0.039 0.325-0.039v-0.166c0-0.139-0.021-0.236-0.064-0.291-0.041-0.055-0.089-0.083-0.144-0.083z"></path>
<path fill="#fff" style="fill: var(--color5, #fff)" d="M29.925 18.7c0 0.575-0.51 1.041-1.139 1.041s-1.139-0.466-1.139-1.041c0-0.575 0.51-1.041 1.139-1.041s1.139 0.466 1.139 1.041z"></path>
<path fill="#cc8e1e" style="fill: var(--color1, #cc8e1e)" d="M29.16 18.288c0.054-0.018 0.107 0.030 0.087 0.080l-0.344 0.873c-0.021 0.054-0.105 0.055-0.128 0.002l-0.161-0.376-0.412-0.147c-0.059-0.021-0.058-0.097 0.002-0.117l0.955-0.314z"></path>
</symbol>
<symbol id="arrow_right" viewBox="0 0 32 32">
<path fill="#f1efe9" style="fill: var(--color6, #f1efe9)" d="M15.82 0.228c8.737 0 15.82 7.083 15.82 15.82s-7.083 15.82-15.82 15.82h-15.82v-31.64h15.82z"></path>
<path fill="#cc8e1e" style="fill: var(--color1, #cc8e1e)" d="M16.956 15.425c0.479 0.277 0.479 0.969 0 1.246l-3.538 2.043c-0.479 0.277-1.079-0.069-1.079-0.623v-4.085c0-0.554 0.599-0.9 1.079-0.623l3.538 2.043z"></path>
</symbol>
<symbol id="arrow_left" viewBox="0 0 31 32">
<path fill="#f1efe9" style="fill: var(--color6, #f1efe9)" d="M15.822 31.692c-8.738 0-15.822-7.084-15.822-15.822v0c0-8.738 7.084-15.822 15.822-15.822h15.467v31.644h-15.467z"></path>
<path fill="#cc8e1e" style="fill: var(--color1, #cc8e1e)" d="M14.506 16.484c-0.47-0.274-0.47-0.954 0-1.228l3.511-2.050c0.474-0.277 1.070 0.065 1.070 0.614v4.1c0 0.549-0.596 0.891-1.070 0.614l-3.511-2.050z"></path>
</symbol>
<symbol id="medical" viewBox="0 0 30 32">
<path fill="#f1efe9" style="fill: var(--color6, #f1efe9)" opacity="0.7" d="M0 14.871c0-8.213 6.658-14.871 14.871-14.871s14.871 6.658 14.871 14.871v17.076h-29.741v-17.076z"></path>
<path fill="#cc8e1e" style="fill: var(--color1, #cc8e1e)" d="M15.56 12.273c-0.005 0.113 0.035 0.239 0.113 0.352 0.053 0.077 0.086 0.022 0.087-0.016 0.002-0.085 0.050-0.106 0.12-0.121 0.179-0.040 0.273-0.178 0.256-0.354-0.013-0.128 0.010-0.088 0.119-0.075 0.162 0.020 0.312-0.002 0.442-0.117 0.041-0.036 0.038-0.062-0.008-0.088-0.181-0.105-0.369-0.191-0.578-0.213-0.16-0.017-0.294 0.036-0.403 0.162s-0.146 0.277-0.147 0.471l0 0zM15.056 12.451c-0.074-0.001-0.149-0-0.224-0v-0.001c-0.072 0-0.145-0.001-0.216 0.001-0.026 0.001-0.065-0.008-0.069 0.032-0.005 0.049 0.040 0.043 0.066 0.043 0.149 0.004 0.298 0.005 0.447 0.004 0.025 0 0.063 0.005 0.060-0.040-0.003-0.040-0.037-0.039-0.065-0.039zM14.595 12.373l0.478-0c0.040 0.001 0.070-0.014 0.099-0.045 0.226-0.245 0.166-0.7-0.119-0.887-0.189-0.124-0.406-0.085-0.545 0.098-0.161 0.211-0.169 0.556-0.019 0.776 0.027 0.040 0.060 0.058 0.107 0.057zM14.704 16.181c0.002 0.119 0.057 0.164 0.169 0.139 0.056-0.012 0.084-0.040 0.083-0.105-0.003-0.14-0.001-0.28-0.001-0.421h0.014c0-0.309 0.023-0.321-0.177-0.309-0.085 0.005-0.101 0.021-0.099 0.113 0.003 0.194 0.009 0.388 0.012 0.583zM14.726 17.455c0.003 0.125 0.018 0.135 0.138 0.129 0.056-0.003 0.079-0.027 0.077-0.087-0.003-0.086-0.001-0.172-0.001-0.258h0.004c0-0.079-0.002-0.157 0-0.236 0.003-0.092-0.019-0.12-0.106-0.124-0.078-0.004-0.116 0.033-0.116 0.118-0.001 0.152-0.001 0.305 0.002 0.457zM14.748 18.303c-0.001 0.111 0.166 0.123 0.172 0.014 0.004-0.076 0.004-0.152 0.004-0.229 0-0.027-0.014-0.045-0.040-0.053-0.141-0.042-0.137 0.058-0.137 0.157h0.001l-0 0.111zM14.833 19.054c0.086-0.003 0.117-0.235 0.002-0.238-0.055-0.001-0.074 0.056-0.074 0.121-0.001 0.056 0.034 0.118 0.071 0.117zM14.765 19.655c0.003 0.092 0.133 0.1 0.133-0.007-0-0.020 0-0.040 0-0.059h0.001c0-0.065 0.012-0.152-0.063-0.158-0.091-0.007-0.074 0.142-0.071 0.223zM14.79 20.118c-0 0.13-0 0.261 0 0.391 0 0.093 0.091 0.088 0.093 0.002 0.002-0.067 0.001-0.133 0.001-0.199h0.002c0-0.064 0-0.128 0-0.192-0-0.037-0.007-0.074-0.050-0.073-0.038 0.001-0.045 0.037-0.045 0.071zM14.728 20.023c0.015-0.022 0.034-0.045-0.002-0.066-0.087-0.049-0.142 0.134-0.067 0.27 0.010 0.018 0.019 0.048 0.044 0.035 0.056-0.027-0.067-0.104 0.025-0.239zM14.94 19.895c-0.062-0.054-0.136-0.086-0.206-0.126-0.105-0.059-0.134-0.186-0.068-0.29 0.031-0.049 0.077-0.075 0.056-0.109-0.039-0.063-0.12-0.068-0.164-0.010-0.095 0.126-0.065 0.322 0.071 0.433 0.061 0.050 0.129 0.089 0.194 0.133 0.099 0.067 0.193 0.136 0.135 0.272-0.004 0.030-0.008 0.051 0.012 0.057 0.054 0.017 0.143-0.212-0.029-0.362zM14.718 18.831c0.068-0.099-0.022-0.106-0.080-0.151-0.063-0.048-0.104 0.033-0.126 0.089-0.073 0.184-0.015 0.356 0.162 0.474 0.077 0.051 0.162 0.089 0.238 0.142 0.139 0.098 0.154 0.233 0.046 0.365-0.043 0.052 0.028 0.067 0.031 0.066 0.022-0.005 0.043-0.020 0.063-0.037 0.161-0.142 0.133-0.414-0.056-0.533-0.056-0.035-0.118-0.060-0.176-0.093-0.134-0.076-0.18-0.21-0.101-0.323zM15.117 18.694c-0.175-0.228-0.329-0.194-0.483-0.331-0.093-0.082-0.109-0.139-0.074-0.26 0.037-0.126-0.011-0.089-0.107-0.132-0.034-0.015-0.051-0.002-0.065 0.032-0.074 0.191 0.007 0.439 0.178 0.541 0.092 0.055 0.185 0.106 0.275 0.164 0.156 0.1 0.177 0.185 0.093 0.355-0.011 0.022-0.029 0.048-0.001 0.065 0.036 0.022 0.076 0.036 0.108 0.050 0.084 0.015 0.215-0.303 0.076-0.483h-0zM14.865 17.662c-0.035-0.002-0.070-0-0.105-0.003-0.426-0.028-0.487-0.503-0.249-0.712 0.061-0.054 0.14-0.073 0.134-0.108-0.005-0.026-0.032-0.026-0.052-0.030-0.117-0.026-0.23-0.065-0.342-0.111-0.035-0.015-0.065-0.022-0.090 0.009-0.046 0.058-0.101 0.112-0.124 0.186-0.078 0.25-0.091 0.491 0.089 0.708 0.151 0.181 0.319 0.324 0.56 0.342 0.203 0.016 0.446-0.035 0.426 0.26-0.013 0.192-0.166 0.184-0.152 0.247 0.009 0.044 0.142 0.103 0.177 0.078 0.070-0.051 0.126-0.113 0.16-0.2 0.131-0.34-0.154-0.651-0.431-0.666zM14.283 15.426c-0.154-0.012-0.31-0.024-0.456-0.079-0.081-0.030-0.126-0.003-0.173 0.060-0.188 0.254-0.163 0.627 0.054 0.869 0.186 0.208 0.421 0.315 0.675 0.39 0.174 0.051 0.349 0.097 0.523 0.146 0.101 0.029 0.192 0.078 0.273 0.147 0.201 0.171 0.178 0.499-0.044 0.621-0.124 0.068 0.066 0.12 0.151 0.235 0.006 0.009 0.018 0.013 0.029 0.021 0.020-0.013 0.039-0.023 0.055-0.036 0.083-0.070 0.15-0.154 0.218-0.239 0.196-0.241 0.147-0.787-0.205-0.965-0.333-0.169-0.64-0.187-0.939-0.301-0.151-0.058-0.272-0.151-0.339-0.312-0.026-0.063-0.028-0.121-0.007-0.185 0.103-0.306 0.282-0.291 0.278-0.342-0.002-0.030-0.060-0.028-0.094-0.031zM14.052 13.988c-0.092 0.056-0.186 0.088-0.291 0.098-0.074 0.007-0.148 0.024-0.221 0.039-0.131 0.027-0.225 0.105-0.283 0.231-0.069 0.148-0.047 0.293 0.018 0.434 0.122 0.264 0.325 0.425 0.594 0.485 0.344 0.076 0.694 0.105 1.044 0.134 0.316 0.025 0.627 0.043 0.677 0.449 0.034 0.275-0.264 0.419-0.458 0.474-0.021 0.006-0.054 0.006-0.056 0.036-0.003 0.038 0.035 0.036 0.057 0.041 0.379 0.098 0.313 0.212 0.431 0.156 0.307-0.143 0.582-0.399 0.585-0.807-0.003-0.162-0.070-0.306-0.197-0.419-0.181-0.162-0.396-0.242-0.625-0.282-0.278-0.048-0.558-0.063-0.84-0.058-0.133 0.002-0.266-0.006-0.398-0.031-0.148-0.028-0.275-0.098-0.375-0.217-0.142-0.169-0.126-0.367 0.046-0.381 0.327-0.026 0.469 0.126 0.683-0.038 0.060-0.046 0.073-0.117 0.044-0.185-0.056-0.132-0.315-0.231-0.435-0.158zM14.216 14.133c-0.108 0-0.108-0.071 0-0.071s0.108 0.071 0 0.071zM14.133 13.768c-0.141 0.049-0.19-0.118-0.285-0.005-0.054 0.064-0.109 0.128-0.163 0.192l-0.020 0.044c0.017 0.041 0.213-0.002 0.276-0.050 0.113-0.086 0.175-0.014 0.231-0.119 0.034-0.064-0.013-0.072-0.039-0.063zM14.094 13.67c0.15 0.002 0.363-0.265 0.272-0.31-0.068-0.034-0.071 0.133-0.29 0.296 0.011 0.009 0.015 0.015 0.018 0.015zM14.458 13.473c-0.104 0.218-0.208 0.221-0.194 0.262l0.050 0.008c0.159-0.096 0.202-0.231 0.214-0.244 0.019-0.043-0.044-0.079-0.070-0.025zM13.833 13.583c0.010 0.034 0.051 0.035 0.064 0.030 0.154-0.057 0.271-0.161 0.351-0.309 0.024-0.044-0.046-0.109-0.086-0.059l-0.302 0.283c-0.018 0.011-0.034 0.029-0.026 0.055zM13.446 13.655c-0.194 0.179-0.422 0.299-0.649 0.421-0.052 0.028-0.053 0.060-0.003 0.098 0.062 0.047 0.135 0.051 0.202 0.051 0.076 0.008 0.142-0.007 0.204-0.038 0.225-0.112 0.398-0.291 0.563-0.481 0.030-0.035 0.003-0.119-0.057-0.097-0.127 0.047-0.218 0.005-0.26 0.045zM12.887 13.46c-0.208 0.14-0.428 0.254-0.667 0.321-0.060 0.017-0.066 0.051-0.049 0.104 0.049 0.154 0.227 0.187 0.382 0.15 0.246-0.059 0.461-0.186 0.666-0.335 0.038-0.028 0.086-0.050 0.104-0.096 0.015-0.037-0.036-0.062-0.036-0.099 0.001-0.117-0.094-0.068-0.142-0.094-0.099-0.056-0.178-0.006-0.259 0.048l-0-0zM12.626 13.158c-0.296 0.14-0.606 0.231-0.921 0.305-0.074 0.017-0.081 0.044-0.027 0.101 0.098 0.105 0.282 0.145 0.404 0.121 0.318-0.063 0.603-0.206 0.867-0.398 0.011-0.008 0.029-0.014 0.024-0.032-0.013-0.046-0.1 0.020-0.274-0.091-0.024-0.015-0.047-0.017-0.073-0.005zM12.209 12.917c-0.216 0.058-0.438 0.075-0.659 0.098-0.159 0.016-0.318 0.008-0.477 0.021-0.054 0.004-0.069 0.024-0.041 0.079 0.092 0.181 0.235 0.259 0.431 0.251 0.329-0.001 0.761-0.155 1.061-0.296 0.078-0.037 0.066-0.105-0.015-0.114-0.146-0.016-0.156-0.078-0.3-0.039zM12.156 12.804c-0.063-0.059-0.085-0.158-0.184-0.182-0.259-0.064-0.214-0.235-0.329-0.225-0.349 0.033-0.699 0.066-1.049 0.086-0.070 0.004-0.14 0.008-0.21 0.017-0.073 0.008-0.081 0.025-0.052 0.095 0.022 0.052 0.054 0.098 0.090 0.14 0.151 0.175 0.349 0.217 0.531 0.227 0.504-0.020 0.696-0.023 1.165-0.118 0.018-0.004 0.065-0.014 0.038-0.039v-0zM12.136 12.524c0.35-0.015 0.654-0.172 0.955-0.338 0.095-0.052-0.075-0.057-0.224-0.191-0.035-0.031-0.067-0.034-0.109-0.017-0.303 0.119-0.608 0.23-0.916 0.33-0.026 0.008-0.063 0.010-0.070 0.042-0.009 0.046 0.052 0.081 0.052 0.081 0.093 0.069 0.197 0.1 0.312 0.094zM12.718 12.808c0.228-0.080 0.435-0.202 0.636-0.339 0.079-0.053 0.135-0.096 0.101-0.213-0.046-0.163-0.105-0.084-0.226-0.016-0.327 0.184-0.66 0.349-1.033 0.403-0.036 0.005-0.065 0.014-0.019 0.064 0.149 0.161 0.343 0.17 0.54 0.101zM13.781 12.647c-0.227 0.231-0.413 0.389-0.696 0.545-0.020 0.011-0.048 0.019-0.048 0.048-0 0.034 0.026 0.050 0.052 0.064 0.083 0.045 0.235 0.013 0.315-0.018 0.176-0.069 0.293-0.212 0.416-0.352 0.079-0.090 0.081-0.172 0.031-0.272-0.021-0.043-0.036-0.050-0.070-0.015zM13.679 12.579c-0.037-0.036-0.079-0.069-0.122-0.098-0.029-0.019-0.053 0.009-0.076 0.024-0.306 0.206-0.449 0.303-0.789 0.427-0.055 0.020-0.054 0.053-0.024 0.095 0.107 0.147 0.309 0.107 0.443 0.029 0.202-0.117 0.377-0.272 0.546-0.436 0.012-0.011 0.033-0.029 0.021-0.041zM13.765 12.474c0.084 0.020 0.156 0.030 0.145 0.151-0.004 0.042 0.032 0.065 0.063 0.020 0.077-0.109 0.151-0.221 0.151-0.392-0.019-0.133-0.056-0.286-0.147-0.415-0.281-0.398-0.674-0.112-1.013 0.030-0.030 0.013-0.034 0.036-0.007 0.055 0.098 0.068 0.194 0.139 0.319 0.14 0.071 0.001 0.141-0.004 0.21-0.018 0.054-0.011 0.059 0.010 0.051 0.058-0.031 0.186 0.053 0.329 0.228 0.371zM14.016 13.252c0.090-0.108 0.089-0.108 0.008-0.216-0.044-0.057-0.060-0.119-0.126-0.039-0.142 0.171-0.288 0.338-0.503 0.412-0.062 0.021-0.049 0.103 0.002 0.115 0.032 0.017 0.067 0.019 0.103 0.019 0.216-0.010 0.378-0.127 0.516-0.291zM14.591 13.328c0.002-0.042-0.018-0.059-0.052-0.076-0.212-0.105-0.438-0.296-0.573-0.511-0.013 0.041 0.004 0.060 0.015 0.081 0.13 0.244 0.322 0.418 0.556 0.544 0.041 0.022 0.053 0.007 0.054-0.038zM15.005 13.707c0.015-0.335-0.002-0.671 0.015-1.006 0.003-0.060-0.019-0.092-0.081-0.089-0.077 0.003-0.155 0.002-0.232 0-0.049-0.001-0.068 0.022-0.067 0.071 0.003 0.089 0.007 0.177 0.008 0.266 0.003 0.274-0.003 0.548 0.014 0.821v0.044c-0.001 0.343 0.004 0.685 0.013 1.028 0.002 0.071 0.026 0.092 0.089 0.084 0.126-0.016 0.216 0.020 0.219-0.066 0.003-0.066 0.008-0.133 0.010-0.199 0.010-0.318-0.003-0.636 0.012-0.954zM15.121 13.367c0.241-0.121 0.45-0.279 0.566-0.544 0.012-0.027 0.031-0.054 0.021-0.090-0.027 0.008-0.030 0.033-0.041 0.051-0.122 0.213-0.283 0.377-0.514 0.454-0.057 0.019-0.11 0.044-0.080 0.123 0.010 0.026 0.031 0.014 0.048 0.006zM15.405 13.705c-0.080-0.067-0.139-0.151-0.188-0.244-0.028-0.054-0.123-0.004-0.075 0.056 0.050 0.063 0.169 0.213 0.25 0.227 0.025 0.004 0.030-0.024 0.013-0.038zM15.573 13.633c-0.079-0.083-0.165-0.159-0.216-0.267-0.022-0.046-0.084-0.004-0.063 0.044 0.027 0.063 0.062 0.121 0.112 0.167s0.102 0.092 0.181 0.087c-0.006-0.014-0.008-0.024-0.014-0.031zM15.44 13.309c0.068 0.128 0.203 0.271 0.339 0.299 0.055 0.012 0.080-0.048 0.028-0.077-0.12-0.066-0.205-0.168-0.28-0.283-0.016-0.024-0.032-0.042-0.062-0.020-0.029 0.021-0.043 0.044-0.024 0.080zM15.931 14.016c0.023-0.002 0.053 0.009 0.064-0.016 0.013-0.028-0.019-0.041-0.033-0.058-0.048-0.057-0.108-0.103-0.146-0.169-0.031-0.054-0.071-0.059-0.119-0.030-0.109 0.066-0.187-0.015-0.201 0.047-0.016 0.073 0.085 0.097 0.122 0.106 0.184 0.044 0.126 0.138 0.313 0.119zM16.176 14.141c-0.114-0.033-0.229-0.049-0.347-0.044-0.14 0.007-0.070-0.098-0.272-0.123-0.142-0.017-0.254 0.049-0.359 0.137-0.071 0.060-0.073 0.253 0.115 0.287 0.352 0.063 0.384-0.11 0.57-0.065 0.165 0.040 0.221 0.169 0.138 0.326-0.052 0.099-0.134 0.162-0.224 0.218-0.094 0.058-0.198 0.085-0.318 0.11 0.090 0.072 0.246 0.078 0.373 0.178 0.099 0.079 0.172 0.030 0.258-0.030 0.178-0.125 0.326-0.271 0.357-0.511 0.031-0.239-0.074-0.421-0.292-0.484zM15.443 14.062c0.108 0 0.108 0.071 0 0.071s-0.108-0.071 0-0.071zM16.379 13.774c-0.098-0.078-0.195-0.163-0.332-0.145l-0.062-0.012c-0.033-0.007-0.068-0.028-0.091 0.021-0.020 0.043-0.005 0.074 0.023 0.105 0.108 0.12 0.219 0.237 0.352 0.325 0.146 0.097 0.403 0.24 0.575 0.127 0.029-0.019 0.054-0.044 0.055-0.081 0.002-0.042-0.037-0.047-0.063-0.059-0.164-0.074-0.316-0.169-0.458-0.282zM16.182 13.543c0.162-0.010 0.153-0.119 0.077-0.144-0.2-0.066-0.346-0.207-0.473-0.377-0.1-0.133-0.087-0.044-0.182 0.063-0.028 0.031-0.024 0.060-0.001 0.092 0.060 0.086 0.133 0.159 0.214 0.222 0.105 0.083 0.223 0.132 0.366 0.144zM17.455 13.782c-0.217-0.037-0.525-0.225-0.711-0.345-0.064-0.042-0.12-0.051-0.196-0.037-0.093 0.017-0.157 0.037-0.182 0.147-0.011 0.049-0.017 0.075 0.025 0.103 0.276 0.184 0.547 0.421 0.885 0.394l0.163-0.055c0.067-0.042 0.128-0.186 0.016-0.206zM16.792 13.232c-0.025 0.005-0.063-0.012-0.070 0.029-0.007 0.039 0.029 0.053 0.053 0.070 0.119 0.084 0.247 0.15 0.377 0.211 0.165 0.077 0.335 0.138 0.521 0.158 0.116-0.009 0.232-0.034 0.319-0.135 0.058-0.068 0.050-0.092-0.033-0.108-0.304-0.060-0.598-0.158-0.882-0.286-0.107-0.048-0.11 0.023-0.284 0.060l-0 0zM16.602 13.193c-0.264-0.116-0.473-0.312-0.677-0.515-0.084-0.083-0.090-0.082-0.125 0.033-0.018 0.058-0.047 0.113 0.002 0.172 0.102 0.125 0.209 0.246 0.338 0.341 0.093 0.069 0.197 0.099 0.322 0.098 0.185 0.001 0.218-0.095 0.141-0.129zM16.963 12.934c-0.274-0.083-0.511-0.242-0.743-0.407-0.068-0.048-0.115-0.050-0.18 0.002-0.052 0.042-0.053 0.069-0.008 0.114 0.162 0.165 0.342 0.306 0.538 0.423 0.116 0.069 0.333 0.104 0.425-0.035 0.031-0.047 0.027-0.079-0.032-0.097zM16.993 12.82c0.176 0.071 0.343 0.001 0.483-0.095 0.020-0.014 0.051-0.032 0.045-0.061-0.007-0.031-0.048-0.029-0.085-0.035-0.371-0.063-0.746-0.192-1.054-0.437-0.044-0.036-0.11-0.064-0.145-0.015-0.033 0.046-0.036 0.121-0.040 0.184-0.003 0.044 0.044 0.061 0.075 0.081 0.231 0.147 0.47 0.277 0.722 0.379zM18.137 13.021c-0.237-0.015-0.468-0.063-0.699-0.117-0.122-0.029-0.095 0.021-0.273 0.045-0.040 0.006-0.075 0.014-0.081 0.064-0.008 0.058 0.039 0.061 0.072 0.073 0.23 0.086 0.804 0.278 1.045 0.284 0.189 0.001 0.347-0.064 0.452-0.241 0.046-0.077 0.034-0.098-0.052-0.1-0.155-0.003-0.309 0.002-0.463-0.008zM18.056 12.392c-0.152-0.013-0.119 0.138-0.279 0.195-0.121 0.044-0.151 0.086-0.22 0.179-0.015 0.020-0.052 0.031-0.044 0.061 0.009 0.032 0.046 0.028 0.072 0.033 0.388 0.070 0.806 0.102 1.201 0.089 0.241-0.008 0.428-0.11 0.54-0.344 0.041-0.086 0.031-0.103-0.063-0.111l-1.208-0.103zM16.603 12.198c0.192 0.104 0.39 0.194 0.594 0.267 0.107 0.038 0.216 0.063 0.335 0.069 0.118-0.015 0.244-0.022 0.336-0.128 0.044-0.051 0.039-0.075-0.021-0.095-0.318-0.103-0.633-0.213-0.943-0.34-0.088-0.036-0.087 0.052-0.299 0.149-0.018 0.008-0.046 0.010-0.046 0.038 0 0.026 0.027 0.031 0.045 0.041z"></path>
</symbol>
<symbol id="sun" viewBox="0 0 14 14">
<path fill="#fff" style="fill: var(--color5, #fff)" d="M13.488 4.772v-1.927c0-0.383 0.152-0.751 0.423-1.022s0.639-0.423 1.022-0.423c0.383 0 0.751 0.152 1.022 0.423s0.423 0.639 0.423 1.022v1.927c0 0.383-0.152 0.751-0.423 1.022s-0.639 0.423-1.022 0.423c-0.383 0-0.751-0.152-1.022-0.423s-0.423-0.639-0.423-1.022zM23.123 16.333c0 1.62-0.48 3.203-1.38 4.55s-2.179 2.396-3.675 3.016c-1.496 0.62-3.143 0.782-4.732 0.466s-3.048-1.096-4.193-2.241c-1.145-1.145-1.925-2.604-2.241-4.193s-0.154-3.235 0.466-4.732c0.62-1.496 1.669-2.775 3.016-3.675s2.93-1.38 4.55-1.38c2.171 0.002 4.253 0.866 5.788 2.401s2.399 3.617 2.401 5.788zM20.232 16.333c0-1.048-0.311-2.073-0.893-2.944s-1.41-1.551-2.378-1.952c-0.968-0.401-2.034-0.506-3.062-0.302s-1.972 0.709-2.713 1.45c-0.741 0.741-1.246 1.685-1.45 2.713s-0.1 2.093 0.302 3.062c0.401 0.968 1.080 1.796 1.952 2.378s1.896 0.893 2.944 0.893c1.405-0.002 2.752-0.56 3.745-1.554s1.552-2.34 1.554-3.745zM5.722 9.166c0.134 0.134 0.294 0.241 0.47 0.314s0.364 0.11 0.554 0.11c0.19 0 0.378-0.037 0.554-0.11s0.335-0.179 0.47-0.314c0.134-0.134 0.241-0.294 0.314-0.47s0.11-0.364 0.11-0.554c0-0.19-0.037-0.378-0.11-0.554s-0.179-0.335-0.314-0.47l-1.445-1.445c-0.271-0.271-0.64-0.424-1.024-0.424s-0.752 0.152-1.024 0.424c-0.271 0.271-0.424 0.64-0.424 1.024s0.153 0.752 0.424 1.024l1.445 1.445zM5.722 23.497l-1.445 1.445c-0.134 0.134-0.241 0.294-0.314 0.47s-0.11 0.364-0.11 0.554c0 0.19 0.037 0.378 0.11 0.554s0.179 0.335 0.314 0.47c0.271 0.272 0.64 0.424 1.024 0.424 0.19 0 0.378-0.038 0.554-0.11s0.335-0.179 0.47-0.314l1.445-1.445c0.271-0.272 0.424-0.64 0.424-1.024s-0.153-0.752-0.424-1.024c-0.271-0.271-0.64-0.424-1.024-0.424s-0.752 0.153-1.024 0.424zM23.123 9.589c0.19 0 0.378-0.037 0.553-0.11s0.335-0.179 0.469-0.313l1.445-1.445c0.134-0.134 0.241-0.294 0.314-0.47s0.11-0.364 0.11-0.554c0-0.19-0.038-0.378-0.11-0.554s-0.179-0.335-0.314-0.47c-0.134-0.134-0.294-0.241-0.47-0.314s-0.364-0.11-0.554-0.11c-0.19 0-0.378 0.037-0.554 0.11s-0.335 0.179-0.47 0.314l-1.445 1.445c-0.203 0.202-0.342 0.46-0.398 0.741s-0.028 0.573 0.082 0.837 0.296 0.491 0.535 0.65c0.239 0.159 0.519 0.243 0.806 0.242zM24.145 23.5c-0.272-0.271-0.64-0.424-1.024-0.424s-0.752 0.153-1.024 0.424c-0.272 0.272-0.424 0.64-0.424 1.024s0.153 0.752 0.424 1.024l1.445 1.445c0.272 0.272 0.64 0.424 1.024 0.424s0.752-0.153 1.024-0.424c0.272-0.271 0.424-0.64 0.424-1.024s-0.153-0.752-0.424-1.024l-1.445-1.445zM4.817 16.333c0-0.383-0.152-0.751-0.423-1.022s-0.639-0.423-1.022-0.423h-1.927c-0.383 0-0.751 0.152-1.022 0.423s-0.423 0.639-0.423 1.022c0 0.383 0.152 0.751 0.423 1.022s0.639 0.423 1.022 0.423h1.927c0.383 0 0.751-0.152 1.022-0.423s0.423-0.639 0.423-1.022zM14.933 26.449c-0.383 0-0.751 0.152-1.022 0.423s-0.423 0.639-0.423 1.022v1.927c0 0.383 0.152 0.751 0.423 1.022s0.639 0.423 1.022 0.423c0.383 0 0.751-0.152 1.022-0.423s0.423-0.639 0.423-1.022v-1.927c0-0.383-0.152-0.751-0.423-1.022s-0.639-0.423-1.022-0.423zM28.422 14.888h-1.927c-0.383 0-0.751 0.152-1.022 0.423s-0.423 0.639-0.423 1.022 0.152 0.751 0.423 1.022c0.271 0.271 0.639 0.423 1.022 0.423h1.927c0.383 0 0.751-0.152 1.022-0.423s0.423-0.639 0.423-1.022-0.152-0.751-0.423-1.022c-0.271-0.271-0.639-0.423-1.022-0.423z"></path>
</symbol>
<symbol id="arrow_down" viewBox="0 0 30 32">
<path fill="none" stroke="#2b3f5b" style="stroke: var(--color7, #2b3f5b)" stroke-linejoin="miter" stroke-linecap="butt" stroke-miterlimit="4" stroke-width="3.6923" d="M7.385 13.922l7.385 7.385 7.385-7.385"></path>
</symbol>
<symbol id="moon" viewBox="0 0 11 11">
<path fill="#d3cfc3" style="fill: var(--color8, #d3cfc3)" d="M29.275 20.463c-0.929 3.034-2.791 5.698-5.322 7.612-2.221 1.672-4.865 2.692-7.634 2.945s-5.553-0.271-8.041-1.513c-2.488-1.242-4.58-3.153-6.043-5.518s-2.237-5.091-2.236-7.872c-0.010-3.246 1.045-6.406 3.003-8.994 1.914-2.531 4.577-4.393 7.61-5.323 0.2-0.062 0.413-0.067 0.616-0.017s0.388 0.155 0.536 0.303c0.148 0.148 0.253 0.333 0.303 0.537s0.044 0.416-0.017 0.616c-0.663 2.195-0.719 4.528-0.161 6.752s1.709 4.254 3.329 5.875c1.621 1.621 3.651 2.772 5.874 3.33s4.556 0.502 6.75-0.161c0.2-0.062 0.413-0.067 0.616-0.017s0.389 0.155 0.536 0.303c0.148 0.148 0.253 0.333 0.303 0.537s0.045 0.416-0.017 0.616l-0.007-0.010z"></path>
</symbol>
<symbol id="logo" viewBox="0 0 34 32">
<path fill="#ffb13b" style="fill: var(--color9, #ffb13b)" d="M32.519 13.778c-1.195-1.132-3.132-1.132-4.327 0h-6.262l4.428-4.195c1.69 0 3.059-1.298 3.059-2.898s-1.37-2.899-3.059-2.899c-1.69 0-3.059 1.298-3.059 2.899l-4.428 4.195v-5.932c1.195-1.132 1.195-2.967 0-4.099s-3.132-1.132-4.327 0c-1.195 1.132-1.195 2.967 0 4.099v5.932l-4.428-4.195c0-1.601-1.37-2.898-3.059-2.898s-3.059 1.298-3.059 2.898c0 1.601 1.37 2.899 3.059 2.899l4.428 4.195h-6.262c-1.195-1.132-3.132-1.132-4.327 0s-1.195 2.967 0 4.099c1.195 1.132 3.132 1.132 4.327 0h6.262l-4.427 4.194c-1.69 0-3.059 1.298-3.059 2.898s1.37 2.899 3.059 2.899c1.69 0 3.060-1.298 3.060-2.898l4.428-4.195v5.932c-1.195 1.132-1.195 2.967 0 4.099s3.132 1.132 4.327 0c1.195-1.132 1.195-2.967 0-4.099v-5.932l4.428 4.195c0 1.601 1.37 2.898 3.059 2.898s3.060-1.298 3.060-2.898c0-1.601-1.37-2.898-3.059-2.898l-4.428-4.195h6.262c1.195 1.132 3.132 1.132 4.327 0s1.195-2.967 0-4.099z"></path>
</symbol>
</defs>
</svg>
